<?xml version="1.0" encoding="UTF-8"?>
<svg id="Layer_1" xmlns="http://www.w3.org/2000/svg" version="1.1" viewBox="0 0 2000 800">
  <!-- Generator: Adobe Illustrator 30.3.0, SVG Export Plug-In . SVG Version: 2.1.3 Build 182)  -->
  <defs>
    <style>
      .st0 {
        fill: #ec2385;
      }

      .st1 {
        fill: #fff;
      }

      .st2 {
        fill: #29c2e7;
      }
    </style>
  </defs>
  <path class="st0" d="M747.7,724.1c-4,0-7.8-1.6-10.6-4.4-3.2-3.2-4.7-7.6-4.3-12.1l2.4-23.8c-278.3,1.8-417.4,2.7-417.4,2.7-7.7,0-14.1-5.8-14.9-13.5-.8-7.8,4.4-14.7,12.1-16.2l211.1-40.2-110.2-1.7c-7.6-.1-13.9-5.9-14.7-13.5s4.3-14.5,11.8-16.1l79.3-16.9c-161.2,3.2-241.8,4.7-241.9,4.7-7.7,0-14.1-5.8-14.9-13.5-.8-7.7,4.6-14.8,12.3-16.2l251-44.4-72.1-1.1c-7.6-.1-13.9-5.9-14.7-13.5-.7-7.6,4.3-14.5,11.8-16.1l248.5-52.9c-.4-.3-.8-.6-1.2-1-.3-.2-.8-.6-1.3-1-13-10.9-20.7-25.9-22.5-43.4-2.2-22.1,5.8-53.6,21.5-101.6-6,3-12.3,4.9-18.8,5.6-1.7.2-3.4.2-5,.2-12.7,0-25.2-4.6-35.2-13l-.9-.8c-.1-.1-.7-.7-.7-.7-5.4-4.9-10-11-13.1-17.8-1.6-3.5-2.8-7.2-3.7-10.8-.5-2.1-.8-4.2-1-6.2-.2-2.5-.3-5-.2-7.5.3-5.7,1.5-11.3,3.7-16.7.7-1.6,1.5-3.4,2.3-5,1.4-2.6,3-5.1,4.8-7.5l1.1-1.5c.3-.4.7-.8,1-1.2l.5-.6c.6-.7,1.2-1.2,1.7-1.8,0,0,.7-.7.8-.8l.3-.3c.7-.7,1.4-1.3,2-1.9l.3-.3c.7-.6,1.5-1.3,2.2-2,1.4-1.2,2.8-2.5,4.3-3.8,2-1.8,4.2-3.6,6.3-5.4,1.7-1.4,3.4-2.8,5.1-4.1,9.2-7.4,19.1-14.6,29.4-21.4,5.5-3.7,11.1-7.2,16.5-10.5,7.2-4.3,14.3-8.3,21.2-11.9,2.5-1.3,5.1-2.6,7.8-3.9,1-.5,2-.9,2.9-1.4,19.6-9.1,37.5-14.5,53.1-16.1,2.1-.2,4.2-.3,6.3-.3,4.6,0,9.1.5,13.6,1.5,2.2.5,4.4,1.1,6.6,1.8,3.6,1.2,7,2.7,10.5,4.6.8.4,1.7.9,2.6,1.5,7.1,4.4,13.2,10,18.2,16.8,8.3-10.2,20.3-16.7,33.7-18,1.7-.2,3.4-.2,5.1-.2,20.9,0,37.2,12.5,46.8,22.1,8-9.5,19.4-15.6,32.2-16.8,1.6-.2,3.3-.2,4.9-.2,11.7,0,22.8,4.2,32.6,12.2,14.9-25.9,24.3-35.2,34.2-41.2,6.5-3.9,13.5-6.3,20.9-7,1.7-.2,3.4-.2,5-.2,20.8,0,39.2,12.2,49.2,32.7,1.2,2.4,2.2,4.8,3.1,7.4,1.8,5.2,3.1,10.6,3.6,15.9.9,9.5,2.5,25.5-25.7,87.8-1.7,3.8-3.5,7.7-5.3,11.6.2.1.3.2.5.3,2.2,1.5,4.3,3.1,6.3,4.8,3.3-2.8,6.7-5.4,10.3-7.8,1.7-1.2,3.5-2.3,5.3-3.4,6.1-3.7,12.6-6.8,19.3-9.2,7.8-2.8,15.7-4.7,23.3-5.4,3.2-.3,6.3-.5,9.3-.5,19.1,0,32.5,6.1,41.1,11.9,9.8-11.8,24.6-19.4,41.7-21,2.4-.2,4.8-.3,7.2-.3,9.8,0,19.4,1.9,28,5.5,8.2-5.4,17.7-8.8,27.8-9.8,2.4-.2,4.9-.4,7.4-.4,27.3,0,56.4,14.9,59.7,48.3.9,9.6-.9,18.2-3.9,28.7,4.5,6.4,7.6,13.7,8.9,21.3l263.5-25.8c2.2-.2,4.4-.4,6.5-.6,2.1-.2,4.2-.4,6.2-.6,10.3-.9,19.7-1.6,27.7-2,6.8-.3,13-.5,18.4-.5,7.9,0,14.4.3,20,1.1,25.4,3.2,46.2,16.5,60,38.4,6.9,11,11.2,23.8,13.1,39.3.2,1.7.4,3.4.5,5.1.1,1.6.2,3.2.3,4.9,0,1.7.1,3.3.2,5.1.2,7.9-.2,16.6-1.2,25.9-.4,3.6-.8,7.1-1.2,10.5-2.9,21.1-7.7,37-14.9,49.6,2.6,6.1,4.4,12.2,5.3,18.4.3,2.1.5,4.3.6,6.6.2,4.7.2,13.5-1.8,36.2-.3,3.1-.6,6.3-.9,9.7l-9.9,99.4c-.7,7.1-6.4,12.7-13.4,13.4l-977.7,95.6c-.5,0-1,0-1.5,0h0Z"/>
  <path class="st1" d="M747.7,716.6c-2,0-3.9-.8-5.3-2.2-1.6-1.6-2.4-3.8-2.2-6l3.2-32.1s-425.6,2.8-425.7,2.8c-3.9,0-7.1-2.9-7.4-6.8-.4-3.8,2.2-7.3,6-8.1l283.1-53.9-183.4-2.8c-3.8,0-7-3-7.3-6.8s2.2-7.2,5.9-8l155.8-33.2s-319.9,6.3-320,6.3c-3.8,0-7.1-2.9-7.4-6.8-.4-3.9,2.3-7.4,6.1-8.1l328.2-58.1-150.4-2.3c-3.8,0-7-3-7.3-6.8s2.2-7.2,5.9-8l268.8-57.3c-2.2-.7-4.3-1.5-6.4-2.5-4.4-2-8.4-4.4-12-7.3-.3-.2-.7-.6-1.1-.9-11.5-9.6-18.3-22.9-19.8-38.4-2.4-24.6,9.4-64.3,28.6-120.6-3,2.3-6,4.8-9,7.2l-.7.6c-.1,0-.2.2-.3.3l-.7.5c-7.2,5.3-15.1,8.5-23.4,9.3-1.4.1-2.9.2-4.3.2-11,0-21.8-4-30.3-11.2l-.9-.7c0,0-.5-.4-.5-.4-4.8-4.3-8.7-9.6-11.4-15.5-1.4-3-2.4-6.1-3.1-9.3-.4-1.8-.7-3.6-.8-5.3-.2-2.1-.3-4.2-.1-6.5.2-4.9,1.3-9.7,3.2-14.3.5-1.4,1.2-2.9,2-4.3,1.2-2.3,2.6-4.4,4.2-6.4l1.1-1.5c.2-.2.3-.4.5-.6l.6-.7c.5-.6,1-1.1,1.6-1.7l.6-.6.3-.3c.7-.6,1.3-1.2,2-1.8l.3-.3c.7-.6,1.4-1.3,2.2-2,1.3-1.2,2.8-2.5,4.2-3.7,2-1.7,4.1-3.5,6.2-5.2,1.6-1.3,3.3-2.7,5-4.1,9.1-7.2,18.8-14.3,28.9-21,5.4-3.6,10.9-7.1,16.2-10.3,7-4.2,14-8.2,20.8-11.7,2.5-1.3,5-2.5,7.6-3.8,1-.5,1.9-.9,2.8-1.3,18.9-8.8,35.9-14,50.7-15.4,1.9-.2,3.8-.3,5.6-.3,4,0,8.1.4,12,1.3,2,.4,3.9,1,5.8,1.6,3.2,1.1,6.2,2.4,9.3,4.1.7.4,1.5.8,2.3,1.3,9.6,5.9,17,14.3,22,24.6,6.5-14,19.3-23.3,34.5-24.8,1.4-.1,2.9-.2,4.3-.2,21,0,37.1,14.8,44.8,23.6.5.6,1.1,1.2,1.6,1.8.4.5.8.9,1.1,1.4,6.3-12.1,18.1-20.2,32.1-21.5,1.4-.1,2.8-.2,4.1-.2,12.7,0,24.4,5.8,34.5,16.8,16.7-30.7,26.4-40.9,36.3-46.8,5.5-3.3,11.5-5.4,17.7-6,1.4-.1,2.9-.2,4.3-.2,17.9,0,33.7,10.7,42.4,28.5,1,2.1,2,4.3,2.8,6.6,1.7,4.7,2.7,9.4,3.2,14.1.8,8.2,2.3,23.5-25,84-2.7,5.9-5.4,11.8-8.2,17.7,1.6.8,3.1,1.6,4.5,2.6.4.3.9.6,1.4.9,3.8,2.5,7.2,5.5,10.2,8.9,4.5-4.3,9.5-8.3,14.7-11.8,1.6-1.1,3.3-2.2,4.9-3.1,5.7-3.4,11.8-6.3,18-8.6,7.2-2.6,14.5-4.3,21.5-5,2.9-.3,5.8-.4,8.6-.4,19.2,0,32,6.7,39.3,12.4,1.1.9,2.2,1.8,3.3,2.8,8.2-13.8,22.8-22.6,40.8-24.3,2.2-.2,4.3-.3,6.5-.3,10.2,0,20.3,2.3,28.9,6.6,7.8-6.1,17.4-9.9,27.7-10.9,2.2-.2,4.4-.3,6.7-.3,24,0,49.4,12.8,52.2,41.5.9,9.4-1.3,18.1-4.7,29.5,5.7,6.9,9.4,15.6,10.3,24.3,0,.9.2,2.1.3,3.5l270.8-26.5c2.2-.2,4.3-.4,6.4-.6s4.2-.4,6.2-.6c10.2-.9,19.4-1.5,27.4-1.9,6.7-.3,12.7-.5,18.1-.5,7.6,0,13.8.3,19.1,1,23.1,3,42,15,54.6,35,6.3,10,10.3,21.9,12,36.2.2,1.6.4,3.2.5,4.8.1,1.5.2,3.1.3,4.7,0,1.6.1,3.2.2,4.8.2,7.6-.2,16-1.1,25-.3,3.5-.8,6.9-1.2,10.2-3,21.9-8.1,38-16,50.1,3.3,6.6,5.4,13.2,6.3,19.9.3,1.9.4,3.8.5,5.8.2,4.5.2,13-1.8,35.2-.3,3-.6,6.2-.9,9.7l-9.9,99.4c-.4,3.6-3.2,6.3-6.7,6.7l-977.7,95.6c-.2,0-.5,0-.7,0h0ZM771.6,394.2c-4.2,3.9-8.3,7.4-12.3,10.4l11.5-2.5.8-8h0Z"/>
  <path class="st2" d="M747.7,709.1l4-40.4-433.9,2.8,355-67.7-256.6-3.9,232.4-49.6-398.1,7.8,405.3-71.8-228.8-3.4,350.7-74.7,2.6-26.4c-1-1.5-1.9-3-2.7-4.5-14.3,15.6-27.8,26.3-40.3,31.7-1.7.8-3.5,1.4-5.2,2-3.9,1.3-7.9,2.2-11.8,2.6-1.5.1-3,.2-4.5.3-1.5,0-3,0-4.5,0-7.2-.3-14.1-1.9-20.4-4.8-3.8-1.7-7.4-3.9-10.5-6.4-.2-.2-.6-.5-.9-.7-9.9-8.3-15.9-19.9-17.2-33.5-2.6-26.2,12.5-72.1,35.8-139.3l.2-.5c-9.6,6.4-19.1,13.6-28.5,21.4l-.7.6-.7.5c-6.1,4.5-12.7,7.2-19.7,7.9-10.3,1-20.9-2.4-29.1-9.3l-.8-.7-.3-.3c-4-3.6-7.4-8.1-9.7-13.1-1.2-2.5-2-5.1-2.6-7.8-.3-1.5-.6-3-.7-4.4-.2-1.8-.2-3.5-.1-5.3.2-4,1.1-8,2.6-11.9.5-1.2,1-2.4,1.7-3.6,1-1.9,2.2-3.7,3.5-5.4l1.1-1.5.7-.8c.5-.5.9-1,1.4-1.5l.5-.5.3-.3c.6-.6,1.2-1.2,1.9-1.7l.3-.3c.7-.6,1.4-1.3,2.1-1.9,1.3-1.2,2.7-2.4,4.1-3.6,1.9-1.7,4-3.4,6.1-5.1,1.6-1.3,3.2-2.6,4.9-4,8.9-7.1,18.5-14,28.4-20.7,5.3-3.6,10.7-7,15.9-10.1,6.9-4.1,13.7-8,20.4-11.4,2.5-1.3,5-2.5,7.4-3.7.9-.4,1.8-.9,2.8-1.3,18.1-8.4,34.3-13.4,48.2-14.8,5.2-.5,10.3-.2,15.3.9,1.7.4,3.4.8,5,1.4,2.7.9,5.3,2.1,8,3.5.7.3,1.3.7,2,1.1,14.3,8.8,23.2,24.1,25.1,43.1,2.2-5.8,4.1-11.3,5.7-16.6v-.3c4.6-14.2,16.3-23.9,30.5-25.3,19.6-1.9,35.3,12.2,42.8,20.8.5.5,1,1.1,1.5,1.7.9,1.1,1.8,2.3,2.7,3.4.9,1.3,1.8,2.5,2.6,3.8,1.2,1.9,2.3,3.8,3.3,5.7.8-2.4,1.7-4.8,2.5-7.3,4.1-12.9,15.1-21.8,28.5-23.1,18.5-1.8,31.4,11.3,39,22.8.4-.7.7-1.4,1.1-2,18.6-35.5,28.6-46.5,37.9-52.1,4.6-2.8,9.5-4.4,14.6-4.9,16.2-1.6,31.2,7.7,39.3,24.2.9,1.9,1.7,3.8,2.4,5.8,1.4,4.1,2.4,8.3,2.8,12.4.7,7,2.1,21.5-24.4,80.2-3.7,8.2-7.6,16.5-11.6,24.7,2.2.7,4.3,1.5,6.4,2.5,1.5.7,3,1.5,4.3,2.4.4.2.8.5,1.2.8,5.7,3.8,10.3,8.7,13.7,14.3,5.7-6.4,12.3-12.3,19.7-17.2,1.5-1,3.1-2,4.6-2.9,5.3-3.2,10.9-5.9,16.7-8,6.7-2.4,13.3-4,19.6-4.6,21.3-2.1,34.9,4.5,42.6,10.4,1.5,1.2,2.9,2.4,4.3,3.7,2,1.9,3.7,4,5.4,6.4.9-1.8,1.7-3.7,2.6-5.5,6.4-13.9,20-22.9,37.2-24.6,12.8-1.3,25.8,1.8,35.6,8,7.1-7.1,16.8-11.5,27.5-12.6,23.3-2.3,48.2,8.8,50.7,34.5.9,8.8-1.6,17.2-5.3,29.8,0,.3-.2.6-.3.9,6.3,6.1,10.3,14.5,11.2,23.1.2,2.2.6,6.2,0,11.1l279.2-27.3c2.2-.2,4.3-.4,6.4-.6s4.1-.4,6.2-.5c10.1-.9,19.2-1.5,27.2-1.9,15.6-.8,27.3-.6,35.8.4,20.8,2.7,37.9,13.6,49.3,31.5,5.7,9.1,9.3,19.9,10.9,33.1.2,1.5.3,3,.5,4.6.1,1.4.2,2.9.3,4.5,0,1.5.1,3,.2,4.6.1,7.3-.2,15.5-1.1,24.1-.3,3.3-.7,6.7-1.2,9.9-3.2,23-8.7,39.1-17.3,50.5,0,0,0,0,0,0,4.1,7.1,6.7,14.3,7.7,21.5.2,1.6.4,3.3.4,5.1.2,4.2.2,12.4-1.8,34.2-.3,3-.6,6.2-.9,9.6l-9.9,99.4-977.7,95.6h0Z"/>
  <path d="M1741,346.5c-1.4-12-4.6-21.8-9.8-29.9-10.1-16-25.2-25.7-43.8-28-8-1-19.3-1.2-34.4-.4-7.8.4-16.9,1-26.9,1.9-2,.2-4,.4-6.1.5s-4.2.4-6.4.6l-40.6,4-29,2.8-97.5,9.5-39.9,3.9-83,8.1c3.4-7.9,2.7-15.4,2.3-19-.7-7.1-4.2-14-9.5-19-.9-.8-1.8-1.6-2.8-2.3.6-2,1.1-3.9,1.7-5.7,3.6-12.2,5.8-19.6,5.1-26.9-2-20.6-22.8-29.5-42.3-27.6-11.5,1.1-21.3,6.8-27.1,15.5-8.8-8.4-22.8-12.2-36-10.9-14.4,1.4-25.7,8.8-31,20.3-2.1,4.3-4,8.6-6,13-.3.7-.6,1.3-.9,1.9-1.1,1-2.2,2-3.4,3.1-.8-2.6-1.8-5.1-3.1-7.5-.6-1.1-1.2-2.1-1.9-3.1-1.5-2.3-3.2-4.3-5-6.1-1.1-1.1-2.3-2.1-3.6-3.1-6.6-5.1-18.4-10.7-37.2-8.9-5.8.6-11.7,2-17.8,4.2-5.3,1.9-10.5,4.4-15.4,7.3-1.4.8-2.9,1.8-4.3,2.7-10.6,7.1-19.5,16.1-25.9,26.1-.1,0-.2.2-.3.3-1.5-9.3-7.2-17.8-15.7-23.5-.3-.2-.7-.4-1-.6-1.2-.7-2.4-1.4-3.6-2-4.7-2.3-9.6-3.5-14.5-3.6,5.5-11,11-22.4,16.1-33.7,25.7-56.8,24.3-70.5,23.8-76.3-.3-3.5-1.2-7-2.4-10.6-.6-1.7-1.3-3.4-2.1-5-6.6-13.5-18.8-21.2-31.7-19.9-3.9.4-7.8,1.7-11.4,3.9-7.1,4.3-16.2,13.2-35.1,49.1-2.5,4.7-5,9.7-7.6,14.9-6.9-15.9-20.5-33.4-38.6-31.7-10.4,1-18.8,7.9-22,18-6.6,18.9-12,34.1-17,47.2,3.6-11,5.5-17.7,4.9-24.5-.6-6.4-3.1-12.9-7.4-19.5-.7-1.1-1.5-2.2-2.3-3.4-.8-1.1-1.6-2.1-2.4-3.1-.4-.5-.9-1-1.3-1.5-6.6-7.5-20.1-19.9-36.3-18.3-11.1,1.1-20.2,8.8-23.8,20v.2c-6.6,21.3-17.6,46.6-31.8,73.1,8-25.2,12.5-43.9,11.1-57.9-1.6-16.6-9.2-29.9-21.5-37.4-.5-.3-1.1-.6-1.7-1-2.3-1.2-4.5-2.2-6.8-3-1.4-.5-2.8-.9-4.2-1.2-4.2-.9-8.5-1.2-12.9-.7-13,1.3-28.5,6-45.8,14.1-.9.4-1.8.8-2.7,1.3-2.4,1.1-4.8,2.3-7.2,3.6-6.5,3.3-13.2,7.1-19.9,11.2-5.1,3.1-10.4,6.4-15.6,9.9-9.7,6.5-19.1,13.3-27.8,20.3-1.6,1.3-3.2,2.6-4.8,3.9-2.1,1.7-4,3.4-5.9,5-1.4,1.2-2.7,2.4-4,3.5-.7.6-1.4,1.3-2,1.9l-.3.3c-.6.5-1.2,1.1-1.8,1.7l-.3.3-.3.3c-.4.4-.8.8-1.2,1.3l-.5.6-.5.7-.2.2v.2c-1.2,1.4-2.1,2.8-3,4.4-.5,1-1,2-1.3,2.9-1.2,3-1.9,6.2-2.1,9.4,0,1.5,0,2.8,0,4.2.1,1.2.3,2.3.6,3.5.5,2.1,1.2,4.2,2.1,6.2,1.8,4,4.6,7.7,8,10.7h.2c0,.1.6.7.6.7,6.6,5.6,15.2,8.3,23.5,7.5,5.5-.5,10.9-2.7,15.9-6.4l.5-.4.5-.4c15.7-13.1,31.6-24.2,47.7-33.3-2.3,6.7-4.7,13.7-7.2,20.8-23,66.2-37.8,111.4-35.4,136,1.1,11.5,6.1,21.3,14.5,28.3.2.2.5.4.8.6,2.7,2.1,5.7,4,8.9,5.4,5.4,2.5,11.3,3.8,17.6,4.1,1.3,0,2.7,0,4,0,1.3,0,2.6-.1,4-.2,3.3-.3,6.7-1.1,10.1-2.2,1.5-.5,3-1.1,4.6-1.8,15.5-6.8,31.4-21.8,46.1-39.5,1.4,6.4,4.1,12.2,7.9,17.2l-3.5,34.8-290,61.8,241.2,3.6-387.6,68.7,380-7.4-244.6,52.2,263.9,4-346.1,65.9,358.5-2.4-4,39.6,231.2-22.6,37.4-3.7,160.8-15.7,36.9-3.6,151.2-14.8,40.2-3.9,97.2-9.5,33.8-3.3,173.4-16.9,9.3-93.1c.3-3.4.6-6.5.9-9.5,1.9-21.3,1.9-29.1,1.8-33.1,0-1.6-.2-3.1-.4-4.4-1.1-7.8-4.3-15.5-9.6-23.2,1.2-1.3,2.4-2.7,3.4-4.1,7.8-10.3,12.9-25.3,15.8-47,.4-3.2.8-6.4,1.1-9.7.8-8.4,1.2-16.2,1.1-23.2,0-1.5,0-2.9-.2-4.3,0-1.4-.2-2.8-.3-4.2-.1-1.5-.3-2.9-.4-4.3h0Z"/>
  <g>
    <path d="M1032.3,370.9l-93.8,9.2-29.8,133.6-3.1-70.9c-.5-19.9-1.3-37.5-2.2-52.8-.1-2.2-.3-4.3-.4-6.4l-93.3,9.1h0l-4.1,40.8-109.1,23.2,106.6,1.6-3.3,33.6-160.1,28.3,157.5-3.1-3.3,33.4-108.8,23.2,106.3,1.6-3.8,37.7-136.4,26,133.9-.9-3.7,37.1h0l63-6.2,18.7-186.4,7.8,183.8,44.7-4.4h0l44.1-193.2-8.4,84.8-10.5,105.9h0l63-6.2,28.2-282.6h0Z"/>
    <path d="M1185.8,355.9l-104.2,10.2h0l-65,286.2h0l74.5-7.3h0l9.4-51.2,25.8-2.5-.5,22.1-.7,28.3h0l73.7-7.2-13-278.6h0ZM1129.3,509.4c0,4.6,0,9,0,13.3,0,4.3,0,8.5,0,12.6,0,2,0,4.1,0,6l-24.8,2.4c1.4-8.4,3.4-18.4,5.8-30,.6-3,1.3-6.1,1.9-9.4,4.6-21.9,10.6-48.7,18-80.7-.4,20.2-.8,38.9-.9,56.3,0,.5,0,1,0,1.5,0,7.2-.1,14.2-.1,21,0,2.3,0,4.6,0,6.9h0Z"/>
    <path d="M1718.4,349.2c-1-8.5-3.2-15.3-6.4-20.5-6.5-10.3-15.6-16.1-27.4-17.6-6.6-.8-16.8-.9-30.4-.2-7.6.4-16.3,1-26,1.8-1.9.2-3.9.3-6,.5s-4.1.4-6.2.6h0l-51,5-28.2,282.6,72.1-7.1h0l8-79.7,4.8-47.8c9.9-1,15.9.2,17.9,3.6,1.2,2.1,1.8,6.5,1.7,13.2,0,.7,0,1.4,0,2.1-.1,3.6-.4,7.7-.9,12.5l-9.4,93.9h0l66.9-6.5h0l6.8-67.8.7-6.8c.3-3.3.6-6.4.9-9.3,1.3-14.8,1.9-24.8,1.7-30,0-.9,0-1.7-.2-2.3-.7-4.9-3.2-10.2-7.5-15.8-.8-1-1.8-2-2.9-3-.4-.4-.9-.7-1.4-1.1-.7-.4-1.3-.9-2.1-1.3-.4-.2-.8-.4-1.3-.7-1.3-.6-2.6-1.2-4.1-1.8-2.4-.9-5.1-1.7-8-2.4,0,0,0,0-.2,0-2.3-.5-4.7-1-7.3-1.4,12.5-2.4,22-6.4,28.4-11.9,1.8-1.5,3.3-3.1,4.6-4.8,5.3-7,9.1-19.1,11.4-36.3.4-2.8.7-5.7,1-8.8.8-7.5,1.1-14.4.9-20.6,0-1.2,0-2.4-.1-3.6,0-1.2-.1-2.3-.2-3.5,0-1.2-.2-2.3-.3-3.4h0ZM1625.9,423l6.3-62.8c8.3-.8,13.9,0,16.8,2.5s3.8,8.2,2.9,17.2l-1.6,15.5c-1.2,12.5-3.6,20-7.1,22.6s-9.3,4.3-17.4,5.1h0Z"/>
    <path d="M1357,465.5l32.2-78.3,21.9-53.3h0l-67.6,6.6h0l-17.2,45.2-25.8,67.8,11-109.8h0l-43.4,4.2c.7-1.6,1.3-3.3,2-5,0-.2.1-.3.2-.5.7-1.7,1.4-3.5,2.1-5.3,3.8-3.1,7.6-6.2,11.1-9.1,3.6-2.9,6.9-5.8,10.1-8.4,2.1-1.8,4.1-3.5,6-5.1,4.1-3.2,4.5-6.1,3.9-11.8-.2-1.6-1.1-3.3-2.3-4.5-.9-.9-2.1-1.4-3.3-1.3-2.3.2-6,3.1-10.3,6.6-.2.2-.5.4-.8.6-1.4,1.1-2.8,2.3-4.3,3.4.6-2.1,1.3-4.3,1.9-6.5,1.1-3.8,2.1-7.7,3.1-11.5.3-1.4.7-2.7,1-4.1.8-3,1.5-5.9,2.3-8.7.2-.6.3-1.2.5-1.7,3.6-12.5,6.9-22.5,6.6-26.3-.6-6.3-11.5-7.7-17.5-7.2-5.3.5-9.5,3.1-11.3,7.1l-2.3,5.3c-1.8,4.2-4.1,8.6-6.8,13-7,11.6-16.7,23.3-27.4,32.3-.5.4-1,.8-1.5,1.2-4.8,3.8-9.8,7.2-14.8,9.7.4-1,.7-2,1.1-3.1,1.7-4.5,3.7-9.8,5.7-15.1.2-.6.5-1.2.7-1.9,1.6-4.1,3.2-8.2,4.7-12.2,1.4-3.6,2.7-7,3.9-10.1.4-1,.8-2,1.1-2.9.3-.7.5-1.3.8-2,.1-.3.3-.7.4-1,.3-.9.6-1.7.9-2.4.1-.3.2-.6.3-.9,0-.2.1-.3.2-.5,0-.1,0-.2.1-.3.9-2.4.8-3,.8-3.6-.5-5.3-10.7-9.1-19.8-8.2h0c-5.3.5-10.5,2.6-12.6,7.2-2.1,4.4-4,8.6-5.9,12.6-.9,2.1-1.8,4.2-2.7,6.2-13.1,12.1-33.9,30.7-55.1,41.5-5.7,2.8-12.4,5.3-19,6-6.6.6-12.7-.3-16-4.8,1.6-.5,3.2-1.1,4.8-1.7,21.2-7.8,43.8-22.5,41.9-40.8-.3-2.7-1-5.2-2.1-7.2-.2-.5-.5-.9-.8-1.3-.6-.9-1.3-1.7-2-2.5-.5-.5-1-.9-1.5-1.3-4.8-3.7-11.9-5.2-21.1-4.3-4,.4-8.1,1.4-12.2,2.9-3.9,1.4-7.7,3.2-11.5,5.5-1.1.7-2.2,1.3-3.2,2.1-8.5,5.8-16.1,13.4-21,22-13.5,11.9-32.5,27.4-51.6,36.1,2.5-16.1,12.6-32.5,11.3-46.3-.3-3.5-2.8-6.8-6-8.9-.1,0-.2-.1-.3-.2-.5-.3-1-.6-1.5-.8-2-1-4.2-1.5-6.2-1.3-1.5.2-3.2.7-5.1,1.6-.9.4-1.8.9-2.8,1.5-.6.3-1.2.7-1.8,1.1-13.6,8.5-33.6,29-49.9,48.8,3.6-8.6,8.3-23.2,12.5-33.8.6-1.5,1.2-3,1.8-4.3,25.5-40.1,66-126.6,64.2-145.4h0c-.2-1.6-.6-3.4-1.2-5.2-.3-.9-.7-1.8-1.1-2.6-2.1-4.2-5.3-7.6-9-7.2-.6,0-1.2.3-1.8.7-5.4,3.3-14.9,17.7-26.7,40.2-10.3,19.7-22.4,45.5-35.1,75.4-13.6,32.3-39.8,101-38.8,111.3.4,3.7,3.8,7.2,7.7,8.8,1.8.8,3.6,1.1,5.3,1,6.6-.7,23.6-21.5,40.9-39.3,5.6-5.8,11.3-11.2,16.6-15.6-2.3,8.8-9.2,25.9-8.3,35,.7,6.9,3.5,10.9,8,12.2.2,0,.5.1.7.2,1.5.3,3.1.4,4.8.2h0c9.2-.9,20.8-5.9,34.1-14.1,2.9-1.8,6-3.8,9.1-5.9,7.8-5.2,16-11.4,24.6-18.2,2.6,22.3,17.8,29.7,40.3,27.5h0c6.4-.6,12.7-2.1,19-4.4,2.1-.8,4.2-1.6,6.3-2.5,3.4-1.5,6.8-3.2,10.3-5,7-3.9,14.2-8.5,21.5-13.9,5.1-3.8,10.4-7.8,15.8-12.2-1.9,6.8-2.7,12.2-2.3,16,.9,9.4,3.5,16.1,19.4,14.5,14.7-1.4,32.3-12.3,51.5-35.7l-4.9,20-3.9,15.9c-2.7,3.3-5.4,6.9-8,10.7-1.3,1.8-2.6,3.7-3.9,5.6-.4.6-.8,1.1-1.1,1.7-14.5,21.9-26.5,47.1-25,61.6.2,2.2,2,4.5,4.2,6.1,2.2,1.5,4.7,2.5,6.7,2.3h0c.5,0,1-.2,1.6-.3.2,0,.3,0,.5-.1.4-.1.8-.3,1.2-.5.2,0,.3-.1.5-.2.5-.2,1-.5,1.6-.8,0,0,0,0,.1,0,.6-.4,1.2-.8,1.9-1.2,0,0,0,0,.1,0,.6-.4,1.2-.9,1.8-1.4,0,0,.2-.1.2-.2,2-1.7,4.1-3.8,6.3-6.4l-22.3,223.1h0l72.1-7.1h0l12.1-121.1,17.1,118.3,74.5-7.3h0l-14.5-73.5-15.3-77.1h0ZM1122,272.1c3.4-.3,5.6,2,5.9,5.1.2,2.1-.3,4.5-1.7,7-.4.8-.9,1.6-1.5,2.4-3.6,4.9-10.3,9.9-21.2,13.2.3-7,2-12.9,4.7-17.6,1.9-3.3,4.3-5.9,6.9-7.7,2.1-1.4,4.5-2.3,6.9-2.5h0Z"/>
    <polygon points="1477 551.3 1483.2 489.1 1528.2 484.7 1528.2 484.7 1528.2 484.7 1533.6 431 1533.6 431 1533.6 431 1488.6 435.4 1493.9 381.8 1542 377.1 1544.9 347.9 1547.7 320.5 1547.7 320.5 1427.5 332.3 1427.5 332.3 1399.2 614.9 1399.2 614.9 1524.2 602.7 1524.2 602.7 1529.9 546.1 1529.9 546.1 1477 551.3"/>
    <path d="M635.8,221.5c.1.5.3,1.1.5,1.6.6,1.3,1.5,2.5,2.6,3.4,0,0,0,0,0,0,1.8,1.6,4.2,2.5,6.6,2.3,1.6-.2,3.1-.9,4.5-2,33-27.6,66.3-46.3,99.4-57.2-1.4,5-3,10.5-4.8,16.3-.8,2.5-1.6,5.1-2.5,7.8-18.8,58-52.5,143.6-49.7,171.9.6,5.8,2.9,10.1,6.5,13.1,0,0,0,0,.1,0,1.3,1.1,2.7,1.9,4.3,2.6,2.8,1.2,5.9,2,9.2,2.1.8,0,1.5,0,2.3,0,.8,0,1.6,0,2.4-.2h0c1.6-.2,3.3-.5,5.1-1.1.9-.3,1.8-.6,2.7-1,26.5-11.6,65.6-65.7,94.1-120.7-3.1,11.3-5.9,22.4-8.3,32.8-.8,3.5-1.6,6.9-2.3,10.2-1.2,5.3-2.2,10.3-3,15.1,0,.5-.2,1-.3,1.5-2.6,14.6-3.8,26.7-3.1,34.8.7,7.4,4.2,12.7,9.5,15.6.9.5,1.8.9,2.8,1.3,1.2.4,2.6.8,4,1,2.1.3,4.3.4,6.7.1h0c38.2-3.7,102.8-106.2,130.8-182,.5-1.3.6-3.2.5-5.1-1.1-11-12.9-28.8-18.6-28.2-1.2.1-2.1.8-2.6,2.5-9.1,26.2-17.5,49.4-26.1,70.5-.9,2.1-1.7,4.2-2.6,6.3-1.7,4.1-3.5,8.2-5.2,12.2-1.8,4-3.5,7.9-5.3,11.7-15.4,32.5-32.6,60-56.3,86.5.6-14.9,2.7-30.6,6-46.9.5-2.5,1-5,1.5-7.5.5-2.1.9-4.2,1.4-6.3,6.5-28.5,15.7-58.5,24.9-88.8,1.9-6.2,5.6-16.7,5.3-19.8-.3-2.8-1.7-6.1-3.8-9.4-.5-.7-1-1.5-1.5-2.2-.5-.7-1.1-1.4-1.7-2.1-.3-.3-.6-.7-.9-1-5.4-6.2-12.4-11.1-17-10.6h0c-2.2.2-3.6,1.9-4.3,4.2-10.3,33.7-29,71.4-49.3,105.2-.7,1.2-1.5,2.4-2.2,3.6-1.9,3.1-3.7,6.1-5.6,9.1-1.1,1.7-2.1,3.3-3.2,5-.7,1.2-1.5,2.3-2.2,3.4-1.1,1.6-2.1,3.3-3.2,4.9-.8,1.2-1.6,2.4-2.4,3.6-.7,1-1.3,2-2,3-2.6,3.8-5.2,7.5-7.7,11.1-.7,1-1.4,2-2.2,3-2.2,3-4.3,5.9-6.4,8.7-.7.9-1.4,1.8-2.1,2.8-12.5,16.3-23.7,28.8-31.8,35.4,8-28.3,16.7-54.8,24.7-78.5,17.7-52.2,32.4-91.3,30.6-109.4-1-10.1-5.2-16.8-10.7-20.2-.2-.2-.5-.3-.7-.4-1-.5-1.9-1-3-1.3-.6-.2-1.2-.4-1.9-.5-1.9-.4-3.9-.5-5.9-.3h0c-11.2,1.1-24.5,5.6-38.4,12.1-.8.4-1.6.8-2.4,1.2-2.2,1-4.4,2.1-6.6,3.3-6.2,3.2-12.4,6.7-18.6,10.4-5,3-9.9,6.2-14.8,9.4-9.4,6.3-18.4,12.8-26.3,19.2-1.5,1.2-3,2.4-4.5,3.6-1.9,1.6-3.7,3.1-5.5,4.7-1.2,1.1-2.5,2.2-3.6,3.2-.6.6-1.2,1.1-1.8,1.7-.6.6-1.2,1.2-1.8,1.7-.2.2-.4.4-.5.6,0,0,0,0,0,0,0,0,0,0,0,0-.3.4-.7.9-.9,1.3-.1.2-.2.5-.3.7-.3.7-.4,1.3-.5,2,0,.3,0,.6,0,.8h0c0,.3,0,.5.1.8h0Z"/>
  </g>
  <g>
    <g>
      <g>
        <path class="st0" d="M938.5,380l-29.8,133.6-3.1-70.9c-.6-22.8-1.5-42.5-2.5-59.2l-93.3,9.1-28.2,282.6,63-6.2,18.7-186.4,7.8,183.8,44.7-4.4,44.1-193.2-19,190.8,63-6.2,28.2-282.6-93.8,9.2h0Z"/>
        <path class="st0" d="M1081.7,366.1l-65,286.2,74.5-7.3,9.4-51.2,25.8-2.5-1.2,50.4,73.7-7.2-13-278.6-104.2,10.2h0ZM1129.5,541.3l-24.8,2.4c4.4-25.2,12.9-65.2,25.7-120-1,46.8-1.3,86-.9,117.6h0Z"/>
        <path class="st0" d="M1411.1,333.8l-67.6,6.6-43.1,112.9,11-109.8-43.4,4.2c1.4-3.5,2.9-7.1,4.3-10.8,10.3-8.3,19.6-16.2,27.2-22.6,4.1-3.2,4.5-6.1,3.9-11.8-.3-2.8-2.8-6-5.6-5.8-3.1.3-8.9,5.6-15.4,10.7,2.2-7.2,4.3-14.7,6.1-22.1,4.3-17.2,9.8-32,9.4-36.7-.6-6.3-11.5-7.7-17.5-7.2-5.3.5-9.5,3.1-11.3,7.1l-2.3,5.3c-9,20.8-29.1,45.5-50.5,56.2,5.7-15.7,16.7-43.1,19.9-51.9,1-2.6.9-3.3.9-3.9-.5-5.3-10.7-9.1-19.8-8.2-5.3.5-10.5,2.6-12.6,7.2-3.2,6.7-6,12.9-8.6,18.8-13.1,12.1-33.9,30.7-55.1,41.5-5.7,2.8-12.4,5.3-19,6-6.6.6-12.7-.3-16-4.8,22.4-7.2,48.7-22.8,46.8-42.5-1.2-12.2-11.3-18.2-27.6-16.6-17.7,1.7-38.1,15.3-47.9,32.5-13.5,11.9-32.5,27.4-51.6,36.1,2.5-16.1,12.6-32.5,11.3-46.3-.6-6.3-8.1-11.9-14.1-11.3-11.9,1.2-38.7,27.5-59.7,53,4.1-9.9,9.6-27.5,14.3-38.1,25.5-40.1,66.1-126.6,64.2-145.4-.6-6.6-5.3-15.6-11.3-15-8.8.9-34.5,48-63.6,116.3-13.6,32.3-39.8,101-38.8,111.3.5,5.3,7.7,10.3,13,9.8,8.8-.9,35.6-37,57.6-55-2.3,8.8-9.2,25.9-8.3,35,.9,9.4,5.7,13.3,13.6,12.6,16.3-1.6,40.3-16.3,67.8-38.1,2.6,22.3,17.8,29.7,40.3,27.5,23.9-2.3,46.7-16.7,72.9-38-1.9,6.8-2.7,12.2-2.3,16,.9,9.4,3.5,16.1,19.4,14.5,14.7-1.4,32.3-12.3,51.5-35.7l-8.8,36c-19.4,24.3-39.9,60.8-38.1,79.6.4,4.4,6.9,8.8,10.9,8.4,4.5-.4,9.9-4.5,15.8-11.3l-22.3,223.1,72.1-7.1,12.1-121.2,17.1,118.3,74.5-7.3-29.8-150.6,54.1-131.7h0ZM1122,272.1c3.4-.3,5.6,2,5.9,5.1.6,6.6-5.9,17-24.3,22.6.7-15.9,8.8-26.8,18.5-27.7h0Z"/>
        <polygon class="st0" points="1483.2 489.1 1528.2 484.7 1533.6 431 1488.6 435.4 1493.9 381.8 1542 377.1 1547.7 320.5 1427.5 332.3 1399.2 614.9 1524.2 602.7 1529.9 546.1 1477 551.3 1483.2 489.1"/>
        <path class="st0" d="M1712,328.7c-6.5-10.2-15.6-16.1-27.4-17.6-11.8-1.5-34.7-.6-68.7,2.7l-51,5-28.2,282.6,72.1-7.1,12.7-127.4c9.9-1,15.9.2,17.9,3.6,2,3.4,2.2,12.6.7,27.8l-9.4,93.9,66.9-6.5,7.4-74.5c2.3-22.8,3.1-36.7,2.4-41.6-.7-4.9-3.2-10.2-7.5-15.8-4.3-5.6-13.4-9.5-27.3-11.7,15.9-3.1,26.9-8.6,33-16.7,6.1-8.1,10.3-23.1,12.5-45.1,2.4-24.1.4-41.3-6.1-51.5h0ZM1651.9,379.8l-1.6,15.5c-1.2,12.5-3.6,20-7.1,22.6s-9.3,4.3-17.4,5.1l6.3-62.8c8.3-.8,13.9,0,16.8,2.5s3.8,8.2,2.9,17.2h0Z"/>
        <path class="st0" d="M819.2,260.6c-10.9,40.3-18.7,76.8-17,94.3,1.2,12.5,10.4,19.2,23,18,38.2-3.7,102.8-106.2,130.8-182,.5-1.3.6-3.2.5-5.1-1.1-11-12.9-28.8-18.6-28.2-1.2.1-2.1.8-2.6,2.5-29.1,83.8-51.1,137.2-95.6,187.1,1.7-44.4,17.8-96.6,33.8-149.4,1.9-6.2,5.6-16.7,5.3-19.8-1-10-16.8-26.2-24.9-25.4-2.2.2-3.6,1.9-4.3,4.2-23.5,76.9-91.3,175.3-120.4,198.7,25.6-90.7,57.9-161.6,55.3-187.9-1.6-16.3-11.5-23.9-22.2-22.8-37,3.6-96.9,44.2-124.4,70.3-1.7,1.8-2.5,3.7-2.3,5.6.4,4.4,5.3,8.7,10,8.2,1.6-.2,3.1-.9,4.5-2,33-27.6,66.3-46.3,99.4-57.2-15.2,54.9-60.2,163.4-57.1,196,1.3,13.2,12,19.1,24.8,17.8,26-2.5,70.5-62.2,101.8-122.8h0Z"/>
      </g>
      <g>
        <g>
          <path class="st1" d="M1032.3,370.9l-28.2,282.6-63,6.2,19-190.8-44.1,193.2-44.7,4.4-7.8-183.8-18.7,186.4-63,6.2,28.2-282.6,93.3-9.1c1.1,16.7,1.9,36.5,2.5,59.2l3,70.9,29.8-133.6,93.8-9.2h0Z"/>
          <path class="st1" d="M1185.8,355.9l13,278.6-73.7,7.2,1.2-50.4-25.8,2.5-9.4,51.2-74.5,7.3,65-286.2,104.2-10.2h0ZM1129.5,541.3c-.4-31.7-.2-70.9.9-117.6-12.8,54.8-21.3,94.8-25.7,120.1l24.8-2.4h0Z"/>
          <path class="st1" d="M1411.1,333.8l-54.1,131.7,29.8,150.6-74.5,7.3-17.1-118.3-12.1,121.2-72.1,7.1,28.2-282.6,72.1-7-11,109.8,43.1-112.9,67.6-6.6h0Z"/>
          <path class="st1" d="M1427.5,332.3l120.2-11.8-5.7,56.6-48.1,4.7-5.3,53.6,45-4.4-5.4,53.8-45,4.4-6.2,62.1,52.9-5.2-5.7,56.6-125,12.2,28.2-282.6h0Z"/>
          <path class="st1" d="M1564.9,318.8l51-5c34-3.3,56.9-4.2,68.7-2.7,11.8,1.5,20.9,7.4,27.4,17.6,6.5,10.3,8.5,27.4,6.1,51.5-2.2,22-6.4,37-12.5,45.1s-17.1,13.7-33,16.7c13.9,2.2,23,6.1,27.3,11.7,4.3,5.6,6.8,10.8,7.5,15.8.7,4.9,0,18.8-2.4,41.6l-7.4,74.5-66.9,6.5,9.4-93.9c1.5-15.1,1.3-24.4-.7-27.8s-7.9-4.6-17.9-3.6l-12.7,127.4-72.1,7.1,28.2-282.6h0ZM1632.2,360.1l-6.3,62.8c8.1-.8,13.9-2.5,17.4-5.1s5.8-10.1,7.1-22.6l1.6-15.5c.9-9,0-14.7-2.9-17.2s-8.5-3.3-16.8-2.5h0Z"/>
        </g>
        <g>
          <path class="st0" d="M956.4,185.8c-1.1-11-12.9-28.8-18.6-28.2-1.2.1-2.1.8-2.6,2.5-29.1,83.8-51.1,137.2-95.6,187.1,1.7-44.4,17.8-96.6,33.8-149.4,1.9-6.2,5.6-16.7,5.3-19.8-1-10-16.8-26.2-24.9-25.4-2.2.2-3.6,1.9-4.3,4.2-23.5,76.9-91.3,175.3-120.4,198.7,25.6-90.7,57.9-161.6,55.3-187.9-1.6-16.3-11.5-23.9-22.2-22.8-37,3.6-96.9,44.2-124.4,70.3-1.7,1.8-2.5,3.7-2.3,5.6.4,4.4,5.3,8.7,10,8.2,1.6-.2,3.1-.9,4.5-2,33-27.6,66.3-46.3,99.4-57.2-15.2,54.9-60.2,163.4-57.1,196,1.3,13.2,12,19.1,24.8,17.8,26-2.5,70.5-62.2,101.8-122.8-10.9,40.3-18.7,76.8-17,94.3,1.2,12.5,10.4,19.2,23,18,38.2-3.7,102.8-106.2,130.8-182,.5-1.3.6-3.2.5-5.1h0Z"/>
          <path class="st0" d="M1297.8,297c-3.1.3-8.9,5.6-15.4,10.7,2.2-7.2,4.3-14.7,6.1-22.1,4.3-17.2,9.8-32,9.4-36.7-.6-6.3-11.5-7.7-17.5-7.2-5.3.5-9.5,3.1-11.3,7.1l-2.3,5.3c-9,20.8-29.1,45.5-50.5,56.2,5.7-15.7,16.7-43,19.9-51.9,1-2.6.9-3.3.9-3.9-.5-5.3-10.7-9.1-19.8-8.2-5.3.5-10.5,2.6-12.6,7.2-3.2,6.7-6,12.9-8.6,18.8-13.1,12.1-33.9,30.7-55.1,41.5-5.7,2.8-12.4,5.3-19,6-6.6.6-12.7-.3-16-4.8,22.4-7.2,48.7-22.8,46.8-42.5-1.2-12.2-11.3-18.2-27.6-16.6-17.7,1.7-38.1,15.3-47.9,32.5-13.5,11.9-32.5,27.4-51.6,36.1,2.5-16.1,12.6-32.5,11.3-46.3-.6-6.3-8.1-11.9-14.1-11.3-11.9,1.2-38.7,27.5-59.7,53,4.1-9.9,9.6-27.5,14.3-38.1,25.5-40.1,66.1-126.6,64.2-145.4-.6-6.6-5.3-15.6-11.3-15-8.8.9-34.5,48-63.6,116.3-13.6,32.3-39.8,101-38.8,111.3.5,5.3,7.7,10.3,13,9.8,8.8-.9,35.6-37,57.6-55-2.3,8.8-9.2,25.9-8.3,35,.9,9.4,5.7,13.3,13.6,12.6,16.3-1.6,40.3-16.3,67.8-38.1,2.6,22.3,17.8,29.7,40.3,27.5,23.9-2.3,46.7-16.7,72.9-38-1.9,6.8-2.7,12.2-2.3,16,.9,9.4,3.5,16.1,19.4,14.5,14.7-1.4,32.3-12.3,51.5-35.7l-8.8,36c-19.4,24.3-39.9,60.8-38.1,79.6.4,4.4,6.9,8.8,10.9,8.4,13.8-1.3,36.6-36.8,54.7-84.4,10.3-8.3,19.6-16.2,27.2-22.6,4.1-3.2,4.5-6.1,3.9-11.8-.3-2.8-2.8-6-5.6-5.8h0ZM1122,272.1c3.4-.3,5.6,2,5.9,5.1.6,6.6-5.9,17-24.3,22.6.7-15.9,8.8-26.8,18.5-27.7h0Z"/>
        </g>
      </g>
    </g>
    <g>
      <polygon class="st1" points="811.7 458.4 696.7 456.7 809.2 432.7 811.7 458.4"/>
      <polygon class="st1" points="805.8 516.9 639.9 520.2 803.3 491.2 805.8 516.9"/>
      <polygon class="st1" points="800 575.5 685.3 573.7 797.5 549.8 800 575.5"/>
      <polygon class="st1" points="793.7 638 651.5 639 791.2 612.4 793.7 638"/>
    </g>
  </g>
</svg>