<?xml version="1.0" encoding="UTF-8"?>
<svg id="Layer_1" xmlns="http://www.w3.org/2000/svg" width="2000" height="2000" version="1.1" viewBox="0 0 2000 2000">
  <!-- Generator: Adobe Illustrator 30.3.0, SVG Export Plug-In . SVG Version: 2.1.3 Build 182)  -->
  <path d="M747.69,1324.09c-4,0-7.76-1.56-10.59-4.39-3.18-3.18-4.74-7.58-4.3-12.05l2.38-23.83q-417.39,2.74-417.4,2.74c-7.73,0-14.13-5.81-14.89-13.5-.76-7.75,4.44-14.69,12.09-16.15l211.14-40.23-110.18-1.69c-7.61-.11-13.92-5.92-14.66-13.5-.74-7.58,4.32-14.5,11.77-16.09l79.3-16.92q-241.76,4.74-241.89,4.74c-7.73,0-14.13-5.81-14.89-13.5-.75-7.72,4.64-14.83,12.28-16.19l250.99-44.45-72.06-1.09c-7.62-.11-13.92-5.92-14.67-13.5-.74-7.59,4.32-14.5,11.77-16.09l248.47-52.94c-.41-.31-.82-.63-1.23-.95-.26-.2-.78-.62-1.29-1.04-12.98-10.91-20.74-25.93-22.45-43.44-2.16-22.12,5.75-53.62,21.55-101.57-5.97,3.05-12.28,4.91-18.85,5.56-1.68.16-3.38.25-5.05.25-12.74,0-25.23-4.6-35.17-12.97l-.91-.78c-.12-.11-.71-.65-.71-.65-5.41-4.86-9.97-11.04-13.08-17.79-1.61-3.51-2.84-7.15-3.65-10.83-.46-2.1-.79-4.17-.98-6.19-.25-2.5-.3-4.97-.17-7.55.28-5.71,1.52-11.33,3.69-16.69.65-1.62,1.46-3.38,2.35-5.04,1.42-2.64,3.03-5.14,4.81-7.46l1.13-1.47c.33-.43.66-.82,1.01-1.19l.54-.57c.58-.65,1.15-1.25,1.73-1.84.04-.05.71-.71.77-.77l.33-.32c.7-.66,1.37-1.28,2.04-1.9l.28-.26c.69-.64,1.45-1.33,2.22-2.03,1.38-1.25,2.83-2.53,4.32-3.82,2.04-1.77,4.17-3.57,6.34-5.36,1.67-1.38,3.37-2.75,5.11-4.14,9.25-7.36,19.14-14.56,29.39-21.4,5.53-3.69,11.08-7.23,16.5-10.49,7.16-4.32,14.3-8.32,21.24-11.89,2.51-1.29,5.12-2.59,7.76-3.86.97-.47,1.95-.93,2.92-1.38,19.64-9.14,37.51-14.55,53.1-16.08,2.1-.2,4.23-.31,6.34-.31,4.56,0,9.13.49,13.56,1.45,2.22.48,4.44,1.09,6.6,1.81,3.6,1.2,7.04,2.72,10.52,4.64.76.41,1.68.94,2.6,1.5,7.08,4.36,13.24,10.05,18.21,16.76,8.35-10.21,20.29-16.73,33.69-18.04,1.69-.16,3.4-.25,5.08-.25,20.9,0,37.24,12.48,46.75,22.13,7.98-9.47,19.44-15.57,32.15-16.81,1.63-.16,3.27-.24,4.87-.24,11.68,0,22.8,4.19,32.61,12.2,14.86-25.9,24.29-35.2,34.24-41.2,6.51-3.93,13.53-6.29,20.87-7.01,1.68-.16,3.37-.25,5.02-.25,20.78,0,39.16,12.24,49.17,32.73,1.16,2.37,2.2,4.85,3.09,7.39,1.85,5.24,3.05,10.59,3.57,15.9.93,9.53,2.49,25.48-25.67,87.81-1.74,3.85-3.53,7.73-5.35,11.61.16.11.33.22.49.33,2.18,1.46,4.28,3.07,6.27,4.83,3.28-2.76,6.72-5.36,10.3-7.77,1.73-1.16,3.5-2.29,5.28-3.36,6.14-3.68,12.62-6.77,19.27-9.19,7.82-2.85,15.66-4.67,23.3-5.42,3.16-.31,6.3-.46,9.33-.46,19.06,0,32.52,6.06,41.06,11.88,9.83-11.83,24.59-19.38,41.65-21.04,2.39-.23,4.83-.35,7.23-.35,9.78,0,19.38,1.9,28.04,5.51,8.19-5.41,17.73-8.76,27.84-9.75,2.45-.24,4.94-.36,7.4-.36,27.34,0,56.39,14.92,59.65,48.26.94,9.62-.93,18.22-3.9,28.68,4.5,6.38,7.59,13.73,8.94,21.27l263.49-25.76c2.21-.21,4.37-.42,6.48-.62,2.12-.2,4.19-.38,6.22-.56,10.34-.9,19.66-1.56,27.71-1.96,6.79-.34,12.99-.51,18.43-.51,7.88,0,14.42.35,20,1.06,25.41,3.24,46.17,16.51,60.01,38.37,6.95,10.99,11.24,23.84,13.1,39.31.2,1.68.38,3.37.52,5.11.13,1.59.24,3.24.32,4.93.08,1.67.14,3.35.17,5.06.15,7.89-.24,16.61-1.17,25.9-.36,3.56-.78,7.09-1.24,10.49-2.89,21.1-7.67,37-14.94,49.56,2.63,6.06,4.4,12.23,5.27,18.42.29,2.12.48,4.26.59,6.56.21,4.68.25,13.52-1.82,36.18-.28,3.06-.59,6.28-.93,9.72l-9.92,99.36c-.71,7.07-6.36,12.71-13.43,13.4l-977.72,95.57c-.49.05-.97.07-1.46.07Z" fill="#ec2385"/>
  <path d="M747.69,1316.61c-1.98,0-3.88-.78-5.29-2.2-1.58-1.59-2.37-3.8-2.15-6.03l3.21-32.1s-425.65,2.8-425.67,2.8c-3.85,0-7.07-2.92-7.44-6.75-.38-3.85,2.25-7.35,6.05-8.08l283.07-53.94-183.4-2.81c-3.8-.06-6.96-2.96-7.33-6.75-.37-3.79,2.16-7.25,5.88-8.04l155.83-33.25s-319.93,6.27-319.98,6.27c-3.84,0-7.07-2.91-7.44-6.75-.38-3.89,2.3-7.41,6.14-8.09l328.15-58.12-150.41-2.27c-3.81-.06-6.96-2.96-7.33-6.75-.37-3.79,2.16-7.25,5.89-8.04l268.78-57.27c-2.18-.7-4.31-1.52-6.39-2.46-4.36-1.97-8.41-4.44-12.05-7.33-.31-.23-.73-.57-1.14-.92-11.45-9.62-18.3-22.92-19.82-38.44-2.4-24.62,9.4-64.27,28.64-120.62-3.01,2.34-6,4.76-8.96,7.23l-.68.57c-.11.09-.23.19-.34.27l-.71.53c-7.21,5.35-15.09,8.47-23.41,9.29-1.43.14-2.88.21-4.33.21-10.98,0-21.76-3.98-30.35-11.21l-.86-.73c-.09-.08-.48-.44-.48-.44-4.76-4.28-8.7-9.62-11.39-15.45-1.39-3.02-2.44-6.14-3.14-9.31-.39-1.8-.67-3.58-.84-5.3-.21-2.13-.26-4.24-.14-6.45.24-4.88,1.3-9.69,3.15-14.28.55-1.39,1.25-2.89,2.02-4.33,1.22-2.27,2.61-4.42,4.15-6.43l1.13-1.47c.16-.2.32-.4.5-.58l.63-.67c.53-.59,1.04-1.13,1.56-1.66,0,0,.59-.59.64-.64l.28-.27c.65-.62,1.3-1.22,1.95-1.81l.28-.26c.68-.63,1.42-1.3,2.17-1.98,1.34-1.21,2.75-2.46,4.21-3.72,1.99-1.73,4.08-3.5,6.2-5.24,1.63-1.35,3.3-2.7,5.01-4.06,9.07-7.22,18.79-14.3,28.88-21.03,5.44-3.63,10.9-7.1,16.21-10.31,7.01-4.23,14.01-8.15,20.8-11.65,2.47-1.27,5.01-2.54,7.57-3.77.95-.46,1.89-.9,2.84-1.34,18.87-8.79,35.92-13.97,50.67-15.41,1.86-.18,3.75-.27,5.61-.27,4.03,0,8.06.43,11.98,1.28,1.95.42,3.91.96,5.82,1.6,3.17,1.06,6.2,2.4,9.28,4.09.71.38,1.5.83,2.29,1.32,9.59,5.9,17.05,14.31,22,24.59,6.53-14,19.31-23.3,34.55-24.79,1.44-.14,2.91-.21,4.35-.21,20.98,0,37.09,14.76,44.82,23.56.52.59,1.06,1.22,1.59,1.85.38.46.76.92,1.14,1.4,6.33-12.11,18.1-20.15,32.08-21.52,1.38-.13,2.78-.2,4.14-.2,12.68,0,24.43,5.75,34.45,16.77,16.72-30.71,26.43-40.91,36.26-46.85,5.55-3.35,11.52-5.36,17.73-5.97,1.43-.14,2.87-.21,4.3-.21,17.86,0,33.72,10.67,42.45,28.53,1.04,2.12,1.96,4.34,2.76,6.6,1.65,4.67,2.72,9.43,3.18,14.14.8,8.21,2.3,23.49-25.04,84-2.65,5.86-5.41,11.79-8.25,17.71,1.57.79,3.09,1.64,4.54,2.56.42.26.94.59,1.45.94,3.77,2.52,7.22,5.54,10.21,8.93,4.53-4.32,9.46-8.29,14.74-11.85,1.62-1.09,3.28-2.15,4.95-3.14,5.73-3.44,11.79-6.32,17.98-8.58,7.23-2.63,14.46-4.31,21.47-5,2.91-.28,5.8-.43,8.6-.43,19.2,0,31.98,6.72,39.31,12.37,1.13.87,2.24,1.79,3.3,2.75,8.19-13.76,22.81-22.56,40.82-24.32,2.15-.21,4.33-.32,6.51-.32,10.23,0,20.28,2.33,28.87,6.64,7.79-6.08,17.44-9.91,27.74-10.91,2.21-.22,4.45-.33,6.67-.33,23.96,0,49.4,12.84,52.2,41.51.92,9.38-1.34,18.07-4.68,29.5,5.72,6.91,9.4,15.56,10.26,24.35.09.91.2,2.11.29,3.54l270.84-26.48c2.19-.21,4.34-.42,6.44-.61,2.1-.19,4.17-.38,6.19-.56,10.22-.89,19.44-1.54,27.43-1.94,6.66-.33,12.74-.5,18.05-.5,7.55,0,13.78.33,19.05,1,23.13,2.95,42.02,15.03,54.64,34.95,6.34,10.02,10.27,21.86,11.99,36.2.19,1.58.36,3.19.49,4.84.13,1.51.23,3.08.31,4.69.08,1.58.13,3.18.16,4.82.15,7.6-.24,16.02-1.13,25.02-.35,3.48-.76,6.91-1.21,10.21-3,21.9-8.12,37.99-16.01,50.1,3.27,6.55,5.4,13.24,6.34,19.94.26,1.88.43,3.78.52,5.85.2,4.46.23,12.96-1.8,35.17-.28,3.03-.58,6.24-.93,9.66l-9.92,99.36c-.36,3.55-3.17,6.35-6.72,6.7l-977.72,95.57c-.24.02-.49.04-.73.04ZM771.63,994.15c-4.17,3.89-8.27,7.37-12.32,10.42l11.52-2.45.8-7.96Z" fill="#fff"/>
  <path d="M747.69,1309.13l4.03-40.38-433.94,2.85,354.99-67.65-256.61-3.93,232.36-49.58-398.07,7.8,405.31-71.78-228.76-3.45,350.73-74.73,2.64-26.41c-.98-1.45-1.88-2.95-2.7-4.5-14.31,15.62-27.84,26.27-40.33,31.73-1.72.75-3.47,1.43-5.2,2.01-3.94,1.32-7.91,2.19-11.8,2.57-1.48.14-2.99.24-4.48.28-1.49.05-3.02.03-4.53-.03-7.25-.32-14.12-1.93-20.42-4.78-3.82-1.73-7.37-3.89-10.53-6.42-.23-.18-.58-.46-.92-.74-9.92-8.34-15.87-19.91-17.19-33.45-2.56-26.17,12.51-72.14,35.79-139.29l.17-.5c-9.6,6.4-19.14,13.56-28.53,21.4l-.68.57-.71.53c-6.11,4.53-12.74,7.18-19.69,7.86-10.31,1.01-20.93-2.38-29.14-9.28l-.81-.69-.28-.26c-4-3.58-7.39-8.14-9.66-13.08-1.16-2.52-2.04-5.13-2.63-7.79-.33-1.5-.56-2.98-.7-4.42-.17-1.76-.21-3.51-.12-5.34.2-4.05,1.08-8.05,2.62-11.86.46-1.15,1.04-2.41,1.68-3.61,1.02-1.9,2.19-3.7,3.48-5.39l1.12-1.46.71-.75c.47-.53.92-1.01,1.38-1.48l.46-.46.28-.27c.61-.58,1.23-1.16,1.86-1.73l.29-.26c.67-.63,1.38-1.27,2.11-1.93,1.3-1.18,2.67-2.39,4.09-3.62,1.92-1.67,3.95-3.38,6.06-5.13,1.6-1.32,3.23-2.64,4.91-3.97,8.91-7.09,18.45-14.04,28.37-20.66,5.35-3.57,10.71-6.98,15.93-10.13,6.87-4.14,13.72-7.98,20.36-11.4,2.47-1.27,4.95-2.51,7.38-3.67.92-.44,1.84-.87,2.75-1.3,18.1-8.43,34.34-13.39,48.24-14.75,5.15-.5,10.29-.21,15.28.87,1.69.36,3.38.83,5.04,1.38,2.73.91,5.35,2.07,8.03,3.55.65.35,1.32.73,1.98,1.13,14.27,8.79,23.17,24.08,25.06,43.06,2.16-5.75,4.06-11.29,5.67-16.56l.1-.31c4.52-14.24,16.16-23.92,30.38-25.31,19.64-1.92,35.26,12.23,42.83,20.84.48.55.97,1.12,1.45,1.69.92,1.1,1.84,2.27,2.7,3.44.93,1.26,1.82,2.54,2.63,3.8,1.23,1.9,2.33,3.81,3.31,5.72.83-2.37,1.68-4.8,2.55-7.31,4.13-12.88,15.08-21.8,28.51-23.11,18.52-1.81,31.43,11.35,39.05,22.84.36-.69.71-1.37,1.06-2.04,18.6-35.52,28.6-46.52,37.88-52.13,4.58-2.77,9.5-4.43,14.6-4.93,16.19-1.58,31.24,7.67,39.29,24.16.91,1.87,1.73,3.83,2.43,5.81,1.45,4.1,2.39,8.27,2.79,12.38.68,6.98,2.1,21.5-24.41,80.2-3.7,8.19-7.6,16.47-11.64,24.71,2.17.67,4.32,1.52,6.43,2.55,1.5.73,2.96,1.54,4.35,2.41.39.24.81.51,1.23.79,5.66,3.79,10.32,8.72,13.65,14.31,5.67-6.43,12.32-12.26,19.68-17.22,1.51-1.02,3.06-2,4.61-2.93,5.33-3.19,10.95-5.88,16.7-7.97,6.65-2.42,13.26-3.96,19.64-4.58,21.32-2.08,34.94,4.52,42.62,10.42,1.49,1.15,2.92,2.39,4.26,3.7,1.98,1.94,3.74,4.04,5.38,6.38.86-1.84,1.73-3.69,2.61-5.54,6.42-13.91,19.97-22.91,37.16-24.59,12.84-1.26,25.8,1.75,35.58,8,7.14-7.06,16.81-11.54,27.53-12.59,23.3-2.28,48.19,8.83,50.7,34.47.86,8.77-1.61,17.15-5.34,29.82-.09.29-.17.59-.26.89,6.28,6.14,10.34,14.52,11.18,23.14.22,2.25.61,6.24.1,11.08l279.2-27.29c2.18-.21,4.31-.42,6.4-.61,2.09-.19,4.14-.38,6.15-.55,10.08-.88,19.22-1.52,27.15-1.92,15.6-.78,27.31-.64,35.79.44,20.85,2.66,37.88,13.56,49.26,31.53,5.74,9.06,9.3,19.88,10.89,33.09.18,1.48.33,3,.46,4.56.12,1.44.22,2.93.29,4.46.07,1.49.12,3.02.15,4.58.14,7.33-.23,15.45-1.1,24.14-.33,3.33-.73,6.68-1.18,9.93-3.16,23.03-8.66,39.09-17.31,50.53-.02.03-.04.05-.06.08,4.11,7.06,6.69,14.28,7.71,21.5.22,1.63.37,3.31.45,5.14.19,4.25.21,12.42-1.77,34.15-.28,3.01-.58,6.19-.92,9.59l-9.92,99.36-977.72,95.57Z" fill="#29c2e7"/>
  <path d="M1741,946.46c-1.45-12.05-4.64-21.83-9.75-29.91-10.12-15.98-25.25-25.68-43.77-28.04-8.03-1.02-19.29-1.15-34.44-.39-7.83.39-16.87,1.03-26.87,1.9-1.99.17-4.03.36-6.11.55-2.08.19-4.2.39-6.36.61l-40.61,3.97-29,2.84-97.52,9.53-39.9,3.9-82.97,8.11c3.43-7.92,2.7-15.39,2.34-19.01-.7-7.12-4.16-14.03-9.51-18.97-.9-.83-1.83-1.59-2.8-2.28.57-1.97,1.13-3.87,1.66-5.68,3.6-12.24,5.78-19.63,5.07-26.92-2.02-20.64-22.83-29.5-42.34-27.6-11.46,1.12-21.26,6.81-27.14,15.53-8.76-8.42-22.77-12.23-35.98-10.94-14.43,1.41-25.7,8.79-31,20.27-2.06,4.32-4.02,8.56-6,12.95-.29.65-.58,1.3-.87,1.94-1.11,1.02-2.24,2.04-3.4,3.08-.79-2.59-1.83-5.08-3.11-7.45-.58-1.08-1.21-2.13-1.88-3.12-1.52-2.28-3.16-4.26-5-6.08-1.12-1.1-2.32-2.14-3.56-3.1-6.58-5.06-18.38-10.71-37.21-8.87-5.75.56-11.73,1.96-17.77,4.16-5.3,1.93-10.47,4.4-15.38,7.34-1.43.85-2.86,1.76-4.26,2.71-10.6,7.14-19.48,16.1-25.91,26.08-.11.1-.23.2-.34.29-1.54-9.32-7.18-17.81-15.67-23.48-.32-.22-.65-.43-1-.64-1.16-.73-2.38-1.4-3.63-2.01-4.68-2.28-9.63-3.51-14.51-3.64,5.54-10.97,11.01-22.39,16.1-33.66,25.67-56.83,24.34-70.48,23.77-76.3-.34-3.5-1.15-7.05-2.39-10.57-.6-1.71-1.31-3.39-2.09-5-6.61-13.54-18.75-21.16-31.67-19.9-3.95.39-7.79,1.69-11.39,3.86-7.08,4.27-16.23,13.18-35.06,49.12-2.45,4.68-4.99,9.68-7.58,14.94-6.89-15.89-20.52-33.44-38.56-31.68-10.4,1.02-18.77,7.89-22.02,18.01-6.57,18.91-12.03,34.07-17.01,47.21,3.56-11.02,5.53-17.66,4.87-24.45-.62-6.36-3.11-12.94-7.38-19.53-.72-1.12-1.5-2.25-2.35-3.39-.78-1.06-1.61-2.11-2.44-3.11-.43-.52-.87-1.03-1.31-1.53-6.6-7.51-20.09-19.86-36.34-18.27-11.12,1.09-20.25,8.75-23.82,19.99l-.08.25c-6.51,21.33-17.51,46.61-31.7,73.08,8.02-25.22,12.47-43.93,11.11-57.87-1.62-16.62-9.25-29.91-21.47-37.43-.54-.33-1.09-.64-1.66-.95-2.26-1.25-4.46-2.22-6.75-2.99-1.4-.47-2.83-.86-4.24-1.16-4.21-.91-8.55-1.16-12.91-.73-13.05,1.28-28.45,6.01-45.76,14.07-.89.41-1.78.83-2.67,1.26-2.36,1.13-4.78,2.33-7.18,3.57-6.5,3.35-13.2,7.1-19.91,11.15-5.11,3.09-10.37,6.43-15.63,9.94-9.74,6.5-19.12,13.33-27.85,20.28-1.64,1.31-3.24,2.6-4.8,3.89-2.06,1.7-4.04,3.38-5.92,5.01-1.37,1.19-2.7,2.37-3.97,3.51-.7.63-1.39,1.26-2.05,1.87l-.28.26c-.6.55-1.2,1.11-1.77,1.65l-.28.27-.28.28c-.4.41-.79.82-1.19,1.28l-.53.56-.55.72-.17.21-.12.17c-1.06,1.37-2,2.82-2.84,4.38-.51.96-.97,1.95-1.34,2.88-1.22,3.02-1.91,6.18-2.07,9.38-.07,1.45-.04,2.83.09,4.21.11,1.15.3,2.32.56,3.51.47,2.12,1.17,4.21,2.1,6.23,1.85,4.01,4.59,7.69,7.96,10.71l.15.14.62.53c6.64,5.59,15.19,8.33,23.46,7.52,5.55-.54,10.9-2.69,15.89-6.39l.53-.39.5-.42c15.67-13.08,31.59-24.19,47.65-33.27-2.3,6.71-4.71,13.65-7.17,20.76-22.95,66.2-37.81,111.43-35.4,136.04,1.13,11.51,6.14,21.31,14.5,28.33.25.21.51.42.78.63,2.67,2.13,5.66,3.95,8.91,5.42,5.41,2.45,11.33,3.83,17.61,4.11,1.32.06,2.66.07,3.97.03,1.3-.04,2.63-.12,3.95-.25,3.31-.32,6.71-1.07,10.11-2.21,1.51-.51,3.05-1.1,4.57-1.77,15.5-6.78,31.43-21.82,46.11-39.49,1.4,6.43,4.1,12.24,7.88,17.16l-3.48,34.85-289.95,61.78,241.19,3.63-387.63,68.65,380.01-7.45-244.57,52.18,263.93,4.04-346.07,65.95,358.46-2.36-3.95,39.57,231.22-22.6,37.42-3.66,160.78-15.72,36.94-3.61,151.24-14.78,40.23-3.93,97.19-9.5,33.8-3.3,173.37-16.95,9.3-93.12c.34-3.38.64-6.54.91-9.53,1.94-21.27,1.93-29.09,1.75-33.11-.07-1.61-.2-3.05-.39-4.42-1.09-7.75-4.31-15.54-9.59-23.2,1.23-1.31,2.37-2.67,3.42-4.06,7.83-10.35,12.86-25.27,15.83-46.95.44-3.17.82-6.42,1.14-9.65.84-8.39,1.19-16.22,1.06-23.24-.03-1.48-.08-2.93-.15-4.34-.07-1.44-.16-2.85-.28-4.21-.12-1.46-.27-2.88-.43-4.27Z"/>
  <g>
    <path d="M1032.3,970.88l-93.79,9.17-29.75,133.59-3.06-70.89c-.55-19.93-1.28-37.54-2.16-52.83-.13-2.18-.26-4.32-.39-6.41l-93.27,9.12h0l-4.08,40.8-109.07,23.24,106.59,1.61-3.35,33.57-160.08,28.35,157.55-3.09-3.34,33.4-108.81,23.22,106.33,1.63-3.76,37.65-136.36,25.99,133.85-.88-3.71,37.14h0s63.01-6.16,63.01-6.16l18.71-186.44,7.83,183.84,44.69-4.37h0l44.14-193.25-8.44,84.84-10.54,105.94h0s63.01-6.16,63.01-6.16l28.23-282.62h0Z"/>
    <path d="M1185.84,955.88l-104.19,10.18h0s-65,286.21-65,286.21h0l74.52-7.28h0l9.41-51.22,25.78-2.52-.53,22.1-.68,28.32h0s73.67-7.2,73.67-7.2l-12.99-278.59h0ZM1129.28,1109.44c0,4.55,0,8.98.03,13.29.02,4.31.06,8.5.1,12.58.02,2.04.05,4.05.08,6.02l-24.81,2.43c1.45-8.36,3.38-18.39,5.75-30.02.62-3.02,1.26-6.14,1.94-9.38,4.59-21.88,10.58-48.74,18-80.65-.45,20.17-.76,38.93-.93,56.29,0,.51,0,1.03-.01,1.54-.07,7.24-.11,14.25-.13,21,0,2.33-.01,4.64-.01,6.91Z"/>
    <path d="M1718.39,949.18c-1.03-8.53-3.15-15.35-6.38-20.45-6.49-10.26-15.63-16.13-27.4-17.63-6.62-.84-16.77-.92-30.43-.24-7.59.38-16.26.99-26.03,1.84-1.95.17-3.95.35-5.99.54-2.04.19-4.12.39-6.25.6h0l-51.02,4.99-28.23,282.62,72.08-7.05h0l7.96-79.65,4.77-47.78c9.93-.97,15.89.24,17.87,3.61,1.24,2.11,1.79,6.52,1.67,13.22-.01.67-.03,1.36-.06,2.08-.13,3.58-.43,7.73-.9,12.46l-9.38,93.91h0s66.95-6.54,66.95-6.54h0l6.77-67.77.68-6.76c.33-3.31.63-6.4.89-9.33,1.35-14.76,1.91-24.79,1.68-30.03-.04-.9-.1-1.65-.19-2.27-.69-4.95-3.19-10.2-7.49-15.78-.81-1.04-1.78-2.03-2.93-2.96-.45-.37-.94-.72-1.45-1.07-.65-.45-1.35-.88-2.09-1.3-.4-.23-.82-.45-1.26-.67-1.26-.64-2.61-1.25-4.1-1.81-2.38-.91-5.06-1.71-8.03-2.41-.05-.01-.1-.03-.15-.04-2.27-.53-4.71-1.01-7.32-1.42,12.52-2.4,21.99-6.37,28.44-11.89,1.75-1.49,3.29-3.1,4.59-4.82,5.26-6.95,9.07-19.06,11.43-36.3.39-2.81.74-5.74,1.04-8.82.75-7.53,1.07-14.38.95-20.56-.02-1.24-.06-2.44-.12-3.63-.06-1.18-.13-2.34-.23-3.46-.1-1.17-.21-2.31-.35-3.42ZM1625.87,1022.97l6.28-62.84c8.33-.81,13.93.02,16.79,2.51,2.86,2.49,3.84,8.21,2.95,17.17l-1.55,15.54c-1.24,12.45-3.61,19.97-7.09,22.56-3.48,2.59-9.27,4.28-17.38,5.07Z"/>
    <path d="M1357.03,1065.5l32.2-78.35,21.9-53.3h0s-67.63,6.61-67.63,6.61h0l-17.23,45.17-25.84,67.76,10.97-109.8h0s-43.39,4.24-43.39,4.24c.68-1.64,1.35-3.31,2.01-4.99.07-.17.13-.34.2-.51.69-1.74,1.37-3.5,2.05-5.28,3.85-3.1,7.57-6.15,11.11-9.09,3.55-2.94,6.92-5.76,10.08-8.42,2.1-1.77,4.11-3.47,6.01-5.08,4.11-3.25,4.46-6.13,3.91-11.77-.16-1.6-1.05-3.3-2.29-4.45-.95-.88-2.11-1.44-3.33-1.32-2.28.22-5.99,3.11-10.33,6.61-.25.21-.51.41-.77.62-1.38,1.12-2.83,2.29-4.3,3.44.64-2.14,1.28-4.32,1.9-6.51,1.09-3.8,2.14-7.65,3.13-11.52.35-1.36.7-2.71,1.02-4.07.75-2.98,1.54-5.88,2.32-8.67.16-.58.32-1.15.49-1.72,3.57-12.52,6.94-22.55,6.58-26.26-.61-6.26-11.51-7.73-17.46-7.15-5.32.52-9.5,3.14-11.32,7.11l-2.33,5.29c-1.83,4.21-4.13,8.58-6.78,12.96-7.03,11.62-16.65,23.31-27.41,32.31-.5.41-.99.82-1.49,1.22-4.78,3.84-9.75,7.16-14.8,9.67.36-.98.74-2.01,1.13-3.08,1.68-4.54,3.68-9.76,5.74-15.1.24-.62.48-1.25.73-1.88,1.59-4.1,3.19-8.23,4.72-12.15,1.41-3.61,2.74-7.03,3.92-10.07.39-1.01.77-1.98,1.12-2.9.27-.69.52-1.34.76-1.97.13-.35.26-.69.39-1.02.33-.86.63-1.66.9-2.37.12-.32.23-.62.34-.91.06-.15.12-.31.17-.46.04-.11.07-.2.11-.3.88-2.36.83-2.98.77-3.58-.52-5.32-10.69-9.07-19.77-8.19h0c-5.33.52-10.5,2.61-12.58,7.24-2.1,4.4-4.04,8.6-5.86,12.64-.94,2.09-1.85,4.15-2.72,6.15-13.07,12.1-33.89,30.74-55.1,41.51-5.74,2.77-12.44,5.33-19.02,5.97-6.58.64-12.68-.34-15.96-4.76,1.58-.51,3.19-1.07,4.8-1.67,21.16-7.81,43.75-22.51,41.95-40.85-.27-2.74-1.01-5.15-2.14-7.25-.24-.45-.5-.88-.78-1.3-.6-.89-1.26-1.74-2.03-2.49-.47-.46-.97-.89-1.49-1.3-4.75-3.66-11.95-5.15-21.11-4.26-3.98.39-8.1,1.4-12.2,2.9-3.88,1.41-7.74,3.24-11.46,5.47-1.09.66-2.18,1.35-3.24,2.06-8.54,5.75-16.09,13.43-21,22.02-13.47,11.91-32.47,27.43-51.64,36.09,2.54-16.06,12.63-32.54,11.28-46.32-.34-3.5-2.84-6.79-6-8.91-.11-.08-.23-.14-.34-.21-.5-.31-1-.6-1.53-.85-2.03-.99-4.2-1.5-6.2-1.3-1.49.15-3.21.68-5.12,1.57-.89.41-1.83.9-2.79,1.45-.59.34-1.2.7-1.82,1.09-13.62,8.54-33.58,28.96-49.91,48.84,3.58-8.64,8.27-23.18,12.5-33.76.61-1.53,1.21-2.98,1.8-4.32,25.49-40.12,66.05-126.62,64.21-145.42h0c-.16-1.64-.57-3.44-1.2-5.2-.31-.88-.67-1.75-1.08-2.59-2.05-4.2-5.27-7.59-8.99-7.23-.55.05-1.16.29-1.84.7-5.42,3.27-14.87,17.71-26.65,40.19-10.3,19.67-22.38,45.49-35.1,75.38-13.6,32.32-39.78,100.97-38.77,111.31.36,3.66,3.84,7.17,7.71,8.83,1.76.76,3.6,1.13,5.26.97,6.63-.65,23.57-21.45,40.94-39.33,5.61-5.77,11.26-11.24,16.62-15.63-2.31,8.76-9.17,25.88-8.28,34.96.68,6.91,3.46,10.87,8,12.18.24.07.48.13.73.18,1.45.32,3.06.4,4.83.23h0c9.15-.89,20.76-5.94,34.06-14.07,2.95-1.81,5.99-3.76,9.1-5.86,7.78-5.24,16.03-11.36,24.6-18.16,2.64,22.32,17.8,29.73,40.3,27.53h0c6.37-.62,12.67-2.12,18.96-4.36,2.11-.75,4.22-1.58,6.33-2.5,3.42-1.48,6.85-3.15,10.31-5.04,7.04-3.86,14.18-8.55,21.53-13.93,5.14-3.76,10.37-7.83,15.76-12.22-1.88,6.84-2.69,12.23-2.33,15.97.92,9.4,3.47,16.1,19.45,14.54,14.72-1.44,32.31-12.33,51.53-35.71l-4.91,20.03-3.91,15.93c-2.67,3.35-5.36,6.93-8.01,10.66-1.31,1.85-2.61,3.73-3.9,5.64-.38.56-.75,1.12-1.12,1.68-14.5,21.92-26.46,47.08-25.03,61.64.22,2.24,2,4.48,4.24,6.09,2.15,1.55,4.71,2.52,6.7,2.32h0c.51-.05,1.03-.16,1.56-.3.15-.04.31-.09.46-.14.4-.13.81-.27,1.23-.45.16-.07.31-.13.47-.2.52-.24,1.04-.51,1.58-.82.04-.02.08-.04.12-.07.62-.37,1.25-.79,1.89-1.25.04-.03.09-.07.13-.1.59-.43,1.19-.91,1.8-1.42.08-.07.16-.14.24-.21,2.01-1.72,4.11-3.85,6.28-6.37l-22.29,223.11h0l72.08-7.05h0l12.1-121.14,17.09,118.29,74.48-7.28h0l-14.54-73.49-15.26-77.1ZM1122.03,872.07c3.45-.34,5.57,1.99,5.88,5.12.2,2.06-.3,4.49-1.65,7.03-.41.78-.93,1.57-1.51,2.36-3.56,4.9-10.29,9.91-21.19,13.22.29-6.95,2-12.94,4.65-17.57,1.89-3.3,4.26-5.91,6.93-7.67,2.14-1.4,4.46-2.26,6.89-2.5Z"/>
    <polygon points="1476.98 1151.27 1483.19 1089.12 1528.22 1084.72 1528.22 1084.72 1528.22 1084.72 1533.59 1030.96 1533.59 1030.96 1533.59 1030.96 1488.56 1035.36 1493.91 981.77 1542.02 977.07 1544.94 947.88 1547.67 920.51 1547.67 920.51 1427.48 932.26 1427.48 932.26 1399.24 1214.87 1399.24 1214.87 1524.24 1202.65 1524.24 1202.65 1529.89 1146.1 1529.88 1146.1 1476.98 1151.27"/>
    <path d="M635.83,821.45c.12.54.31,1.08.55,1.6.59,1.28,1.51,2.47,2.64,3.43.02.02.04.04.07.06,1.85,1.56,4.24,2.51,6.59,2.28,1.57-.15,3.07-.93,4.55-2.03,33.04-27.58,66.31-46.33,99.4-57.15-1.39,5.02-3.03,10.49-4.85,16.3-.8,2.53-1.63,5.13-2.49,7.78-18.83,57.99-52.48,143.56-49.72,171.87.56,5.76,2.93,10.13,6.48,13.11.04.04.09.07.14.1,1.28,1.06,2.72,1.92,4.28,2.63,2.75,1.24,5.86,1.96,9.22,2.1.76.03,1.54.04,2.32.02.78-.02,1.58-.07,2.38-.15h0c1.63-.16,3.32-.54,5.08-1.13.88-.3,1.78-.64,2.69-1.04,26.45-11.57,65.62-65.73,94.06-120.67-3.07,11.33-5.9,22.36-8.34,32.75-.81,3.46-1.58,6.86-2.3,10.17-1.15,5.27-2.17,10.32-3.05,15.12-.09.51-.18,1.01-.27,1.51-2.62,14.61-3.85,26.7-3.06,34.77.72,7.36,4.2,12.69,9.49,15.6.9.49,1.83.94,2.83,1.29,1.25.44,2.57.77,3.96.98,2.08.31,4.32.36,6.66.13h0c38.22-3.74,102.83-106.18,130.84-181.97.5-1.31.63-3.22.45-5.1-1.07-10.96-12.93-28.78-18.57-28.23-1.25.12-2.13.84-2.6,2.47-9.1,26.19-17.51,49.41-26.11,70.47-.86,2.11-1.72,4.19-2.59,6.26-1.73,4.13-3.48,8.18-5.24,12.15-1.76,3.97-3.54,7.86-5.35,11.69-15.37,32.51-32.64,60-56.26,86.5.56-14.86,2.73-30.58,5.97-46.91.49-2.47,1.01-4.96,1.54-7.46.45-2.08.91-4.16,1.39-6.26,6.5-28.5,15.69-58.53,24.88-88.78,1.92-6.2,5.64-16.68,5.34-19.81-.28-2.82-1.72-6.12-3.85-9.4-.47-.73-.98-1.46-1.51-2.17-.53-.72-1.09-1.43-1.67-2.13-.29-.35-.59-.7-.89-1.04-5.43-6.17-12.43-11.09-17.02-10.64h0c-2.19.21-3.61,1.93-4.33,4.22-10.27,33.65-29.03,71.41-49.33,105.19-.72,1.21-1.45,2.41-2.18,3.6-1.87,3.07-3.74,6.09-5.63,9.08-1.06,1.67-2.11,3.34-3.17,4.99-.74,1.15-1.47,2.29-2.21,3.42-1.07,1.64-2.13,3.26-3.2,4.87-.81,1.22-1.62,2.43-2.43,3.64-.67.99-1.33,1.97-2,2.95-2.6,3.82-5.19,7.54-7.74,11.13-.72,1.01-1.44,2.02-2.16,3.01-2.15,2.98-4.28,5.86-6.38,8.65-.7.93-1.39,1.85-2.09,2.75-12.46,16.29-23.69,28.8-31.85,35.38,8-28.35,16.65-54.76,24.69-78.48,17.69-52.17,32.39-91.3,30.63-109.39-.99-10.09-5.17-16.82-10.73-20.25-.24-.15-.49-.28-.74-.41-.95-.53-1.93-.98-2.95-1.32-.61-.2-1.24-.38-1.87-.51-1.89-.41-3.87-.52-5.86-.32h0c-11.2,1.09-24.5,5.6-38.37,12.06-.81.38-1.62.76-2.43,1.15-2.19,1.05-4.39,2.14-6.6,3.28-6.19,3.19-12.43,6.7-18.58,10.41-5,3.02-9.94,6.17-14.76,9.39-9.44,6.3-18.39,12.85-26.31,19.16-1.54,1.22-3.03,2.43-4.49,3.63-1.91,1.58-3.74,3.13-5.5,4.65-1.25,1.09-2.46,2.16-3.63,3.21-.63.57-1.24,1.13-1.84,1.68-.62.58-1.25,1.16-1.85,1.72-.19.2-.37.4-.54.6-.02.02-.04.04-.06.07-.02.02-.03.04-.04.06-.35.43-.65.87-.89,1.32-.13.23-.24.47-.33.71-.27.67-.41,1.34-.45,2.01-.01.28-.01.56.01.84h0c.03.27.07.55.13.82Z"/>
  </g>
  <g>
    <g>
      <g>
        <path d="M938.51,980.05l-29.75,133.59-3.06-70.89c-.63-22.78-1.49-42.52-2.55-59.25l-93.27,9.12-28.23,282.62,63.01-6.16,18.71-186.44,7.83,183.85,44.69-4.37,44.14-193.25-18.97,190.79,63.01-6.16,28.23-282.62-93.79,9.17Z" fill="#ec2385"/>
        <path d="M1081.65,966.06l-65,286.21,74.52-7.28,9.41-51.22,25.79-2.52-1.21,50.42,73.67-7.2-12.99-278.59-104.19,10.18ZM1129.48,1141.33l-24.81,2.43c4.38-25.2,12.94-65.22,25.69-120.05-1.04,46.77-1.33,85.98-.88,117.63Z" fill="#ec2385"/>
        <path d="M1411.12,933.85l-67.63,6.61-43.07,112.94,10.97-109.8-43.39,4.24c1.44-3.51,2.87-7.1,4.27-10.77,10.26-8.28,19.61-16.15,27.2-22.58,4.11-3.25,4.46-6.13,3.91-11.77-.28-2.82-2.81-6.05-5.62-5.77-3.13.31-8.94,5.62-15.4,10.68,2.15-7.17,4.26-14.65,6.06-22.1,4.33-17.18,9.84-31.95,9.38-36.65-.61-6.26-11.51-7.73-17.46-7.15-5.32.52-9.5,3.14-11.32,7.11l-2.33,5.29c-9.03,20.81-29.07,45.53-50.48,56.16,5.73-15.74,16.66-43.06,19.91-51.91,1.01-2.63.95-3.26.88-3.88-.52-5.32-10.69-9.07-19.77-8.19-5.32.52-10.5,2.61-12.57,7.24-3.19,6.67-6.04,12.93-8.57,18.79-13.07,12.1-33.89,30.74-55.1,41.51-5.74,2.77-12.44,5.33-19.02,5.97-6.58.64-12.68-.34-15.96-4.76,22.38-7.25,48.69-22.78,46.76-42.52-1.19-12.22-11.26-18.19-27.55-16.6-17.7,1.73-38.09,15.28-47.91,32.46-13.47,11.91-32.47,27.43-51.64,36.09,2.54-16.06,12.63-32.54,11.28-46.32-.61-6.27-8.12-11.86-14.07-11.27-11.9,1.16-38.74,27.5-59.65,52.95,4.09-9.89,9.64-27.51,14.3-38.08,25.49-40.12,66.05-126.62,64.21-145.42-.64-6.58-5.32-15.61-11.27-15.03-8.77.86-34.52,47.96-63.58,116.26-13.6,32.32-39.78,100.97-38.77,111.31.52,5.32,7.65,10.32,12.97,9.8,8.77-.86,35.6-37,57.56-54.96-2.31,8.76-9.17,25.88-8.28,34.96.92,9.4,5.73,13.35,13.56,12.59,16.27-1.59,40.31-16.31,67.76-38.09,2.64,22.32,17.8,29.73,40.3,27.53,23.94-2.34,46.71-16.7,72.9-38.04-1.88,6.84-2.69,12.23-2.33,15.97.92,9.4,3.47,16.1,19.45,14.54,14.72-1.44,32.31-12.33,51.53-35.71l-8.82,35.96c-19.44,24.35-39.91,60.82-38.07,79.62.43,4.39,6.87,8.82,10.94,8.42,4.47-.44,9.88-4.47,15.77-11.32l-22.29,223.11,72.08-7.05,12.1-121.15,17.09,118.29,74.48-7.28-29.8-150.58,54.1-131.65ZM1122.03,872.07c3.45-.34,5.57,1.99,5.88,5.12.64,6.58-5.92,17.02-24.35,22.62.66-15.88,8.77-26.79,18.48-27.74Z" fill="#ec2385"/>
        <polygon points="1483.18 1089.12 1528.22 1084.72 1533.59 1030.96 1488.56 1035.36 1493.91 981.77 1542.02 977.07 1547.67 920.51 1427.48 932.26 1399.24 1214.87 1524.23 1202.65 1529.88 1146.1 1476.98 1151.27 1483.18 1089.12" fill="#ec2385"/>
        <path d="M1712,928.73c-6.49-10.25-15.63-16.13-27.4-17.63-11.78-1.5-34.67-.59-68.69,2.74l-51.02,4.99-28.23,282.62,72.08-7.05,12.73-127.43c9.93-.97,15.89.24,17.87,3.61,1.98,3.38,2.21,12.63.7,27.76l-9.38,93.91,66.95-6.54,7.45-74.54c2.28-22.81,3.07-36.69,2.38-41.63-.69-4.95-3.19-10.2-7.49-15.78-4.3-5.57-13.41-9.46-27.32-11.68,15.9-3.05,26.91-8.62,33.04-16.71,6.12-8.09,10.28-23.13,12.48-45.13,2.41-24.09.36-41.26-6.13-51.52ZM1651.88,979.81l-1.55,15.54c-1.24,12.45-3.61,19.97-7.09,22.56-3.48,2.59-9.27,4.28-17.38,5.07l6.28-62.84c8.33-.81,13.93.02,16.79,2.51,2.86,2.49,3.84,8.21,2.95,17.17Z" fill="#ec2385"/>
        <path d="M819.23,860.56c-10.93,40.28-18.74,76.78-17.03,94.32,1.22,12.53,10.42,19.22,22.95,18,38.22-3.74,102.83-106.18,130.84-181.97.5-1.31.63-3.22.45-5.1-1.07-10.96-12.93-28.78-18.57-28.23-1.25.12-2.13.84-2.6,2.47-29.12,83.8-51.1,137.18-95.56,187.06,1.66-44.43,17.75-96.61,33.78-149.4,1.92-6.2,5.64-16.68,5.34-19.81-.98-10.02-16.79-26.19-24.93-25.39-2.19.21-3.61,1.93-4.33,4.22-23.47,76.92-91.34,175.27-120.36,198.66,25.6-90.73,57.89-161.56,55.32-187.87-1.59-16.29-11.5-23.86-22.15-22.82-36.96,3.61-96.87,44.25-124.36,70.34-1.73,1.75-2.48,3.72-2.3,5.6.43,4.39,5.27,8.65,9.97,8.2,1.57-.15,3.07-.93,4.55-2.03,33.04-27.58,66.31-46.33,99.4-57.15-15.19,54.93-60.24,163.37-57.06,195.95,1.29,13.16,11.98,19.07,24.83,17.81,26-2.54,70.45-62.23,101.84-122.85Z" fill="#ec2385"/>
      </g>
      <g>
        <g>
          <path d="M1032.3,970.88l-28.23,282.62-63.01,6.16,18.97-190.79-44.14,193.25-44.69,4.37-7.83-183.85-18.71,186.44-63.01,6.16,28.23-282.62,93.27-9.12c1.07,16.72,1.92,36.47,2.55,59.25l3.05,70.89,29.75-133.59,93.79-9.17Z" fill="#fff"/>
          <path d="M1185.84,955.88l12.99,278.59-73.67,7.2,1.21-50.42-25.78,2.52-9.41,51.22-74.52,7.28,65-286.21,104.19-10.18ZM1129.48,1141.33c-.45-31.65-.16-70.86.88-117.63-12.75,54.83-21.31,94.85-25.69,120.05l24.81-2.43Z" fill="#fff"/>
          <path d="M1411.12,933.85l-54.1,131.65,29.8,150.58-74.48,7.28-17.09-118.29-12.1,121.15-72.08,7.05,28.23-282.62,72.08-7.05-10.97,109.8,43.07-112.94,67.63-6.61Z" fill="#fff"/>
          <path d="M1427.48,932.26l120.2-11.75-5.65,56.56-48.11,4.7-5.35,53.59,45.03-4.4-5.37,53.76-45.03,4.4-6.21,62.14,52.91-5.17-5.65,56.56-124.99,12.22,28.23-282.62Z" fill="#fff"/>
          <path d="M1564.89,918.82l51.02-4.99c34.01-3.32,56.91-4.24,68.69-2.74,11.77,1.5,20.91,7.38,27.4,17.63,6.49,10.26,8.53,27.43,6.13,51.52-2.2,22-6.36,37.04-12.48,45.13-6.12,8.09-17.13,13.66-33.04,16.71,13.91,2.21,23.01,6.11,27.32,11.68,4.3,5.57,6.8,10.83,7.5,15.78.69,4.94-.1,18.82-2.38,41.63l-7.45,74.54-66.95,6.54,9.38-93.91c1.51-15.13,1.28-24.38-.7-27.76-1.98-3.38-7.93-4.58-17.87-3.61l-12.73,127.43-72.08,7.05,28.23-282.62ZM1632.15,960.13l-6.28,62.84c8.1-.79,13.9-2.48,17.38-5.07,3.48-2.59,5.84-10.1,7.09-22.56l1.55-15.54c.9-8.96-.09-14.68-2.95-17.17-2.86-2.49-8.46-3.32-16.79-2.51Z" fill="#fff"/>
        </g>
        <g>
          <path d="M956.44,785.8c-1.07-10.96-12.93-28.78-18.57-28.23-1.25.12-2.13.84-2.6,2.47-29.12,83.8-51.1,137.18-95.56,187.06,1.66-44.43,17.75-96.61,33.78-149.4,1.92-6.2,5.64-16.68,5.34-19.81-.98-10.02-16.79-26.19-24.93-25.39-2.19.21-3.61,1.93-4.33,4.22-23.47,76.92-91.34,175.27-120.36,198.66,25.6-90.73,57.89-161.56,55.32-187.87-1.59-16.29-11.5-23.86-22.15-22.82-36.96,3.61-96.87,44.25-124.36,70.34-1.73,1.75-2.48,3.72-2.3,5.6.43,4.39,5.27,8.65,9.97,8.2,1.57-.15,3.07-.93,4.55-2.03,33.04-27.58,66.31-46.33,99.4-57.15-15.19,54.93-60.24,163.37-57.06,195.95,1.29,13.16,11.98,19.07,24.83,17.81,26-2.54,70.45-62.23,101.84-122.85-10.93,40.28-18.74,76.78-17.03,94.32,1.22,12.53,10.42,19.22,22.95,18,38.22-3.74,102.83-106.18,130.84-181.97.5-1.31.63-3.22.45-5.1Z" fill="#ec2385"/>
          <path d="M1297.75,896.95c-3.13.31-8.94,5.62-15.4,10.68,2.15-7.17,4.26-14.65,6.06-22.1,4.33-17.18,9.84-31.95,9.38-36.65-.61-6.26-11.51-7.73-17.46-7.15-5.32.52-9.5,3.14-11.32,7.11l-2.33,5.29c-9.03,20.81-29.07,45.53-50.48,56.16,5.73-15.74,16.66-43.05,19.91-51.91,1.01-2.63.95-3.26.89-3.88-.52-5.32-10.69-9.07-19.77-8.19-5.32.52-10.5,2.61-12.57,7.24-3.19,6.67-6.04,12.93-8.57,18.79-13.07,12.1-33.89,30.74-55.1,41.51-5.74,2.77-12.44,5.33-19.02,5.97-6.58.64-12.68-.34-15.96-4.76,22.38-7.25,48.69-22.78,46.76-42.52-1.19-12.22-11.26-18.19-27.55-16.6-17.7,1.73-38.09,15.28-47.91,32.46-13.47,11.91-32.47,27.43-51.64,36.09,2.54-16.06,12.63-32.54,11.28-46.32-.61-6.27-8.12-11.86-14.07-11.27-11.9,1.16-38.74,27.5-59.65,52.95,4.09-9.89,9.64-27.51,14.3-38.08,25.49-40.12,66.05-126.62,64.21-145.42-.64-6.58-5.32-15.61-11.27-15.03-8.77.86-34.52,47.96-63.58,116.26-13.6,32.32-39.78,100.97-38.77,111.31.52,5.32,7.65,10.32,12.97,9.8,8.77-.86,35.6-37,57.56-54.96-2.31,8.76-9.17,25.88-8.28,34.96.92,9.4,5.73,13.35,13.56,12.59,16.27-1.59,40.31-16.31,67.76-38.09,2.64,22.32,17.8,29.73,40.3,27.53,23.94-2.34,46.71-16.7,72.9-38.04-1.88,6.84-2.69,12.23-2.33,15.97.92,9.4,3.47,16.1,19.45,14.54,14.72-1.44,32.31-12.33,51.53-35.71l-8.82,35.96c-19.44,24.35-39.91,60.82-38.07,79.62.43,4.39,6.87,8.82,10.94,8.42,13.78-1.35,36.57-36.78,54.68-84.4,10.26-8.28,19.61-16.15,27.2-22.58,4.11-3.25,4.46-6.13,3.91-11.77-.28-2.82-2.8-6.05-5.62-5.77ZM1122.03,872.07c3.45-.34,5.57,1.99,5.88,5.12.64,6.58-5.93,17.02-24.35,22.62.66-15.88,8.77-26.79,18.48-27.74Z" fill="#ec2385"/>
        </g>
      </g>
    </g>
    <g>
      <polygon points="811.67 1058.39 696.73 1056.66 809.16 1032.71 811.67 1058.39" fill="#fff"/>
      <polygon points="805.82 1116.93 639.89 1120.18 803.31 1091.24 805.82 1116.93" fill="#fff"/>
      <polygon points="799.97 1175.47 685.29 1173.71 797.46 1149.78 799.97 1175.47" fill="#fff"/>
      <polygon points="793.72 1238.04 651.5 1238.98 791.21 1212.36 793.72 1238.04" fill="#fff"/>
    </g>
  </g>
</svg>